<svg xmlns="http://www.w3.org/2000/svg" viewBox="0 0 590.59 530.4"><path d="M62.59,174.93c0.36-1.28.51-1.84,1-2.2s0.61-.1,1.53.51,3.37,2.14,5.16,3.22,3,1.69,4,2.45a12,12,0,0,0,2.45,1.38,12.74,12.74,0,0,1,2.09,1.38c0.82,0.61,1.79,1.53,1.94,1.23s0.31-.87.72-0.61,0.82,0.87,1,.71a0.65,0.65,0,0,1,.92.2,2.09,2.09,0,0,0,1.43,1,8.21,8.21,0,0,1,1.79.51,1.27,1.27,0,0,1,1,.87c0.25,0.56.56,1,.82,0.77s0.25-.61.82-0.41,0.82,0.87,1.33,1.07,1.42-.26,1.79.41a8.35,8.35,0,0,0,1.07,1.23c0.31,0.36,1.74,1.48,2,1.89s1.12,0.36,1.94.61,1.74,0.2,2.09.36,0.66,1.38,1.38,1.33a4.55,4.55,0,0,1,2,.46c0.66,0.25,2.45.41,3.17,0.61a25.2,25.2,0,0,1,2.91,1.12,46.69,46.69,0,0,0,4.9,2.14,21.46,21.46,0,0,1,2,.87,27.87,27.87,0,0,1,3.12.82,12.61,12.61,0,0,0,3.63,1,11.32,11.32,0,0,0,2.71,0c0.46-.1,1.53.56,2.35,0.56s1.63-.77,2.4-0.71,1.89,1.12,2.55,1.07,1.33-.61,2-0.46a12.12,12.12,0,0,0,4.39-.66c1.48-.51,2.6-0.87,3.27-1.17s1.17-.77,2.45-1.38a4.52,4.52,0,0,0,2-1.58c0.46-.56,1.23-1.38.77-1.53s-2.45-.46-2.76-0.66a3.19,3.19,0,0,0-2-.82,7.27,7.27,0,0,1-2.5-.56,14.67,14.67,0,0,0-2.25-.87,31.33,31.33,0,0,1-4.09-.36,36.05,36.05,0,0,1-4.19-1c-1-.36-2.81-0.71-3.68-1.12s-2.45-1.69-3.27-1.84a4.44,4.44,0,0,1-2.3-1.43,0.84,0.84,0,0,0-1.23-.05c-0.31.15-.87-0.66-1.23-0.87s-0.56-1.48-.92-1-0.51,1.23-.87.87a2.93,2.93,0,0,1-1-1.17c-0.26-.66-0.71-0.66-0.87-0.36s-0.41.1-.82-0.41a8.15,8.15,0,0,0-2.55-1.94c-1-.41-2.3-0.2-3.22-1.12s-2.3-2.09-3.06-2.76a13.73,13.73,0,0,0-2.4-1.74c-0.92-.51-1.63-0.87-2.4-1.28a5.27,5.27,0,0,1-1.84-1.84c-0.41-.66-1.48-0.72-2.55-1.79s-5.21-4.6-6.28-5.41-2.09-.92-2.5-1.79a10.08,10.08,0,0,0-3-2.66,5,5,0,0,1-1.63-1.43,4.45,4.45,0,0,0-1.84-1.28c-0.51-.2-1.28-0.56-0.82-1.23a5.7,5.7,0,0,1,1.17-1.53,5.69,5.69,0,0,0,1.69-1A4.76,4.76,0,0,1,84,152.2c0.87-.41,1.53-0.05,2.25-0.51s1.53-1.63,2-1.79,1.38,0.05,1.48-.56,0.92-.46,1.53-1.07a11.11,11.11,0,0,1,2.4-2.2,23.85,23.85,0,0,0,2.5-1.17c0.56-.41.77-1.33,1.69-1.79a18.5,18.5,0,0,1,2.4-.66,3.29,3.29,0,0,0,1.53-1.17c0.36-.36,1.38.05,2.25-0.31a12.9,12.9,0,0,0,2.81-2,7.87,7.87,0,0,1,3.12-1.84,5.19,5.19,0,0,0,2.5-1.12c0.51-.51,1.07-1.28,1.89-2s2.71-2.6,3.83-3.63a18.16,18.16,0,0,1,2.76-2,13.81,13.81,0,0,0,2.3-1.84c0.46-.51.92-1.28,1.12-1.43s0.92-.41,1,0,0.51,0.61.82-.15a2.11,2.11,0,0,1,1.12-1.17,3.72,3.72,0,0,0,1-1.48,3.71,3.71,0,0,0,.66-1c0.1-.51-0.05-0.31-0.36,0a10.66,10.66,0,0,1-1.23,1.43c-0.41.26-.82,0.2-0.82-0.41s-0.15-1.17.26-1.43a9.36,9.36,0,0,0,1.33-1.53c0.66-.77.77-1.58,0.36-1.38s-0.66.15,0.05-.61a7.18,7.18,0,0,0,1.68-2.25,12.84,12.84,0,0,1,.77-1.69c0.31-.66.36-1.12,0.66-1.63s0.77-1.69.36-2.25,0.15-.87.26-1.33a1.94,1.94,0,0,0-.15-1.33c-0.2-.36.1-0.66-0.26-1.74s0.15-1.43.1-1.94-0.2-1.74-.61-1.69-0.46-.31-0.56-0.92-1.94-2.81-2.55-3.63a38.28,38.28,0,0,0-3.58-3.47,10.29,10.29,0,0,0-2.4-1.94c-0.87-.36-4.65-3.06-6.38-3.68s-7.56-3-9.7-3.42-6.23-1.48-8-1.89a43.33,43.33,0,0,0-4.54-.77C93,81.73,90,81.73,89,81.68s-3-.1-3.83-0.05-2.91.05-5,.31-4.14.71-5.11,0.77a35.78,35.78,0,0,0-3.68.72c-1.07.2-5.31,1-7.46,1.48S59.52,86,58.81,86.27s-6,1.58-7.71,1.94a41.4,41.4,0,0,0-6.64,2.5c-1.53.71-3.06,0.82-4.9,1.74s-6.33,2.6-7.56,3.22-5.57,2.6-7,3.22-4.8,2.4-5.72,2.55-4.49,2.4-6.79,3.57-2.66,2.09-3.93,2.5S6.77,109.1,5.8,109.1s-2.2-.2-3.06-0.15a4.29,4.29,0,0,0-1.74.71c-0.31,0-1.43-.51-0.82,1s2.76,3.58,4.6,5.21a28.4,28.4,0,0,0,4.6,3.57c0.61,0.2,1.23.82,2.35,1.43s2.14,1.12,2.14.82,0.1,0,1.12.09a5.79,5.79,0,0,1,2.45.67c0.51,0.36,1,1.23,2,.46s3.12-1.12,4.29-1.63a23.07,23.07,0,0,0,3.73-2c0.82-.61,1.16-0.27,1.63-0.68s1.23-.14,1.77-0.48a15.5,15.5,0,0,1,1.91-1.23c0.75-.34,1.57-0.35,2.52-0.82s1.29-1.22,2.38-1.49a7.9,7.9,0,0,0,2.25-1,6,6,0,0,1,1.84-.27,6.69,6.69,0,0,0,1.57-.75,11.87,11.87,0,0,1,1.23-.55c-0.07,1.09-.34,2.38-0.27,3.06a20.24,20.24,0,0,0,.14,3.47,5.59,5.59,0,0,1-.07,2.79c-0.2,1.23-.61,3.95-0.82,5.38s-1.09,8.44-1.77,12.67-1.91,9.94-2.32,11.17,0.54,1.09.54,1.09a29.44,29.44,0,0,0-.27,4.49c0.14,1.36.54,3,.14,4.22s-0.54,6.26-.68,8.31-0.54,3-.68,4.9a68.9,68.9,0,0,1-.82,7.22,17.62,17.62,0,0,0-.54,5.31c0.14,2-.82,8.17-1,13.48s-0.14,10.21-.41,13.21-0.68,6.95-.68,9.94,0.14,9.12-.27,11.17,0.14,3.27-.41,3.95,0.27,1.09,0,1.91a24.47,24.47,0,0,0-1.09,4.77,69.19,69.19,0,0,1,.14,7.76c-0.27,2-.54,4.09.14,5.72s1.07,2,.87,2.66a1.57,1.57,0,0,0,.26,1.48c0.25,0.36.82,0.46,0.87,0.1s-0.77-.46-0.71-1,0.71-1,.82-0.41,0.82,0.71.87,1.17-0.77.66-.82,1.12a1.83,1.83,0,0,0,.87,1.38c0.51,0.41.92-.05,1.38,0.72a1.89,1.89,0,0,0,1.48,1.22,2.38,2.38,0,0,0,1.23-.82,1.08,1.08,0,0,1,1.23.05c0.41,0.3,1.53,1,2,.2s0.66-1.12,1.28-1.17a4,4,0,0,0,1.84-.41c0-.2-0.71-0.77-0.26-1a8,8,0,0,0,1.53-.71,2.82,2.82,0,0,1,1.74-.61c0.87-.05,1.38-0.31,1.23-0.46s-0.71-.31-0.56-0.71a0.47,0.47,0,0,1,.87-0.05c0.2,0.36.26,1,.66,0.56l0.41-.41a3.53,3.53,0,0,1,1.12-1.17,2,2,0,0,0,1-1.43c0.1-.46-0.2-1,0.36-1.07s1.07-.15.77-0.77a2.45,2.45,0,0,1-.2-1.63,2,2,0,0,0-.56-1,1.19,1.19,0,0,1,.51-1.07,0.83,0.83,0,0,0-.1-1.17c-0.31-.36-0.1-0.66-0.26-1.94s-0.82-2-.66-3a15.08,15.08,0,0,0,.56-2.14c-0.05-.61-0.31,0-0.56.36s-0.61.92-.82,0.61a1.31,1.31,0,0,1,.05-1.23A1.61,1.61,0,0,0,54,243c-0.2-.56-0.51-1.69.05-2.14a1.42,1.42,0,0,0,.77-1.28,1.49,1.49,0,0,1,.46-1.28,2,2,0,0,0,.46-2c-0.26-.82-0.66-1-0.56-1.68s0.66-1.79.2-1.48a6,6,0,0,0-1.12.77c-0.2.26-.46,0.46-0.66,0.77s-0.46-.15-0.1-0.56A1.05,1.05,0,0,0,53.9,233c-0.05-.61-0.2-0.92-0.51-0.77s-0.87.15-.77-0.41,1-1.17,1-.71,0.36,1.28.41,0.77a3,3,0,0,1,.25-1c0.15-.46-0.36-1.38.05-2.14s1.07-1.23.77-1.43-0.41-.41-0.66.05-0.41.56-.41-0.1,0.46-.77.41-1.17a4.76,4.76,0,0,1-.46-1.23,8.67,8.67,0,0,1,.2-2.91,31.66,31.66,0,0,0,.61-3.63c0.15-.72.51-1.69,0.72-2.71a15.36,15.36,0,0,1,.87-2.71c0.31-.77.2-3.68,0.36-4.7a7.16,7.16,0,0,1,.82-2.25c0.31-.66.41-1.48,0.77-2.3a1.3,1.3,0,0,0-.15-1.43,4.66,4.66,0,0,1,.31-2.15,3.44,3.44,0,0,0-.2-2.14c-0.26-.41-0.46-0.92-0.15-1.07a0.85,0.85,0,0,0-.05-1.07,3.11,3.11,0,0,0-.36-0.72c-0.31-.26.05-0.71,0.56-1.12s0.56-1,.61-2,0.46-1.17.31-1.53a2.38,2.38,0,0,1-.2-1.58,4.7,4.7,0,0,0,.1-1.79,1.38,1.38,0,0,1,.41-1.33c0.41-.46-0.61-1.38,0-1.89a1.59,1.59,0,0,0,.41-1.53,2,2,0,0,1,.56-1.89c0.77-.51.87-1,1.23-2.14S62.23,176.21,62.59,174.93Zm1.36-72.65c0.76-.23,2.31-0.54,3.47-0.75s2.66-.27,3.06-0.68a4.67,4.67,0,0,1,1.43-1.09c0.61-.27-0.07.68,1,0.41a13.22,13.22,0,0,0,2.32-.82,2,2,0,0,1,1-.27,5.05,5.05,0,0,1,1.57-.41c0.82,0.07,1.63.34,2-.14s0.34-.34,1.09-0.34a21.71,21.71,0,0,0,2.66-.68c1.36-.27,2-0.14,2.79-0.54a3.92,3.92,0,0,1,1.57-.75c0.48,0,.34.61,1.63,0.61a35.41,35.41,0,0,1,3.75-.07,11.18,11.18,0,0,0,2.32.34c0.82-.07,1,0.27,1.84.07a3.06,3.06,0,0,1,1.91.27c0.82,0.2,1.23.89,2.52,1a11.15,11.15,0,0,1,2.18.41,2.3,2.3,0,0,1,1.63.27,15,15,0,0,0,2.79,1.16c1.29,0.41,1.84,1,2.72,1.16s1.5,0.34,1.43.89a7.47,7.47,0,0,1-1.43,2.45c-0.75,1-1.77,1.84-2.11,2.38a11.94,11.94,0,0,1-2.93,3.34c-1.91,1.57-3.34,2.66-3.81,3.47a3.71,3.71,0,0,1-1.43,1.36c-0.41.27-.2,0.54-0.89,1.23s-2.45,3.13-4.36,4.36a27.49,27.49,0,0,0-3.2,2.45A24.81,24.81,0,0,0,89.75,126a20.11,20.11,0,0,1-3.2,2.93c-1.29.89-4.56,3.68-6.06,4.77s-3,1.7-3.4,2.18a9.83,9.83,0,0,1-2.38,2c-1.23.75-2.33,1.7-2.38,1.23a4.3,4.3,0,0,1,.2-2.25c0.34-.68-0.14-1.16.34-1.63s0.34-1.84.41-2.79,0.61-2.32.68-3.75a16.17,16.17,0,0,0,.2-3.47,11.36,11.36,0,0,1,0-3.74,30.51,30.51,0,0,0,.48-4.7c-0.07-1.36.27-3-.07-3.75a4.19,4.19,0,0,1-.34-1.91,5.12,5.12,0,0,0-.68-1.84c-0.34-.75-1.29-0.68-1.7-1.7s-0.48-.14-1.57-1.23-1-2.11-1.63-2.31-1,.2-1.77-0.34A6,6,0,0,0,64.7,103C63.81,102.68,62.59,102.68,63.95,102.28Z" transform="translate(0)"/><path d="M130.75,126.45a19.05,19.05,0,0,0-.14,6.54,12.62,12.62,0,0,1,.27,2.86c0.07,0.75,1.09,1.84,1.77,2.72s2.72,3.27,3.54,4.15a12.06,12.06,0,0,0,1.91,1.84A1.88,1.88,0,0,0,140,145c0.54-.14.48,0.2,0.75,0.48a5.88,5.88,0,0,0,1.43.48,7.11,7.11,0,0,0,1.63.41,3.22,3.22,0,0,1,1.29.61,5.59,5.59,0,0,0,1-.07c0.48,0.07,1.7.2,2.11-.2a3.11,3.11,0,0,1,1.57-.82,6.73,6.73,0,0,1,2.25-.2c0.54,0.07,0,.75-0.07,1.36s-0.54.61-.61,1.16-0.82.68-.82,1.23-0.41,1.29-.54,2.18-1,1.29-1.23,2.11-0.61,1.63-1.23,3.06-1.23,3.34-1.77,4.7A27.86,27.86,0,0,0,144.5,165a8,8,0,0,1-.34,1.84A1.33,1.33,0,0,0,144,168c0.14,0.27-.48.75-1,1.23s-0.34,1.16-.68,1.63,0,1.5-.07,2.25-0.68.75-.54,1.7-0.07,1.06-.07,1.06-0.92.61-.51,1.23,0,1.12-.51,1.63a1.13,1.13,0,0,0-.31,1.53c0.41,0.71.82,1.84,1.23,2.76a25.22,25.22,0,0,0,2.66,3.68c0.82,1,2.15,1.23,3.06,1.74s1.94,2.14,3.17,2.35a23.69,23.69,0,0,0,4.49.61c1.12-.1,2.25.31,3.17-0.1s1.84-.71,3-1.23,2-1,2.86-1.33a18.87,18.87,0,0,0,2.35-.92,8.5,8.5,0,0,0,2.15-1.63c0.71-.82,2.66-3.17,3.57-4.19a14.79,14.79,0,0,1,2.86-2.14c0.71-.51.92-1.63,1.33-1.94a27.64,27.64,0,0,0,2.86-3c1.12-1.33,3.06-3.57,3.68-4.29s0.71-2,1.23-2.76a12.43,12.43,0,0,0,1.63-2.66,5.5,5.5,0,0,1,2.14-2.35,11.56,11.56,0,0,0,2-2.35A5.78,5.78,0,0,0,191,159c0.2-.51,1.23-0.92,1.63-1.33s0.92-1.33,1.33-1.74a8.11,8.11,0,0,0,1.43-1.74,22.21,22.21,0,0,1,1.53-2.25c0.51-.71,1.74-1.84,2.25-2.55a3.14,3.14,0,0,0,.26-0.5c0.9,1.84,4.16,4.5,5.66,5.5a39.71,39.71,0,0,0,6.54,3,9.4,9.4,0,0,0,4.19-.1c0.72-.2,1.33-0.31,2.25-0.61a11.7,11.7,0,0,0,3.37-2c1.43-1.12,2.25-1.63,2.76-2a4.22,4.22,0,0,0,1.53-1.74,6.59,6.59,0,0,1,1.43-2.25,12.35,12.35,0,0,0,1.74-2.45,14.49,14.49,0,0,0,.41-2.55,25.41,25.41,0,0,1,1.63-2.45c0.31-.51.61-1.33,1.12-2.15a26,26,0,0,1,1.43-2.45,4.9,4.9,0,0,0,.56-1,12.24,12.24,0,0,0,3.73,4.22c1.12,0.92,4.7,1.74,6.13,1.84a27,27,0,0,0,4.9.1,11.2,11.2,0,0,0,3.47-1c0.92-.61,1.33-1.43,2-1.94a13.07,13.07,0,0,0,1.53-1,2.05,2.05,0,0,0,.41-1.33,2.51,2.51,0,0,1,1.43-1.23,5.24,5.24,0,0,0,1.53-1.33c0.2-.31,1.23-0.41,1.12-1s0.51-.51,1.12-1.12,0.51-1.63.92-2.14,1.33-1.33,1.23-1.94,0.41-.71.82-1.33,0.51-1.43.92-2,0.51-2,.82-2.55a10.38,10.38,0,0,0,.61-2.55,1.8,1.8,0,0,1,.49-0.92,9.73,9.73,0,0,0,.57,1.33c0.82,1.36.82,1.5,0.54,2.18s-0.54.68,1,1.23c0,0,3.4,2.18,4.36,3s1.77,0.68,3.13,1.23,3.27-.27,4.49-0.41a17.21,17.21,0,0,0,4.63-1.77c1-.54,1.91-1,2.86-1.5a28,28,0,0,0,3.4-2.59,16.84,16.84,0,0,0,3-5c0-.54,1.09-1.77,1.09-2.18s1-1.09,1.36-1.91-0.14-1.36.14-1.77a10.59,10.59,0,0,0,1.36-2c0.14-.55.41-2,1-2.45s0.14-2.45.27-2.86a15.63,15.63,0,0,0,1.23-2.18,12.89,12.89,0,0,1,.62-2,21.82,21.82,0,0,0,.4,2.21,14.94,14.94,0,0,1,.51,1.94c0.31,1.33-.1,1.74-0.31,3.68-0.09.82-.71,0.71-0.31,1s0.41,1,.92,1.63a14.76,14.76,0,0,0,1.43,2.25,18.79,18.79,0,0,1,1.43,1.84,6.7,6.7,0,0,0,1.74,1.63c0.82,0.51,1.12,1.23,2,1.63s2.55,1.53,3.47,1.94a7.23,7.23,0,0,0,3.68.31,7.85,7.85,0,0,0,2.66-.61c0.71-.41,1.94-0.2,2.86-0.41a4.14,4.14,0,0,0,2.15-.71c0.82-.61,1.53-1,2.14-1.53a13.79,13.79,0,0,0,2.35-2.45c1-1.33,1.53-2.25,2.14-2.55s0.1-1.12.1-1.12a1.48,1.48,0,0,1,.41-1.23,11.24,11.24,0,0,0,1.64-2.15,15.86,15.86,0,0,0,1.43-2A2.55,2.55,0,0,0,335,102c-0.2-.51-0.51-0.82.2-1.33s0-1.23.51-1.53a2.11,2.11,0,0,0,.51-1.84,10.56,10.56,0,0,1,.92-2.45c0.31-.92-0.2-0.41-0.51-0.92s0.31-1.33.41-2.35,0.51-1.63.51-2.25a3.51,3.51,0,0,0-.51-2,10.35,10.35,0,0,1,.61-2.15,11.7,11.7,0,0,0,.51-2.35c0.12-.47.3-1.34,0.49-2.17,0.12,0.52.26,1.1,0.42,1.66a13.15,13.15,0,0,1,.41,2.55,7.25,7.25,0,0,1,.2,2.45,3.74,3.74,0,0,0,.41,1.84,6.3,6.3,0,0,0,1.12,1.74c0.31,0.31-.31,1.74-0.21,2.55a3.52,3.52,0,0,0,.82,2.15c0.61,0.71.51,1.43,1.12,1.94s1.33,1,1.84,1.43,2.14,0.61,2.55,1a8.59,8.59,0,0,0,3.37.82c0.71,0,1.74.41,2.14,0.31a19,19,0,0,1,2.66.31,3.08,3.08,0,0,0,2.35-.71c0.51-.41,1.64-0.2,2-0.51a8.69,8.69,0,0,1,2.55-.51,1.63,1.63,0,0,0,1.23-.92A2.36,2.36,0,0,1,365,98a3.6,3.6,0,0,0,1.63-1.63c0.51-.82.31-1.33,0.92-1.94a5.27,5.27,0,0,0,1.22-1.84c0.31-.72.21-0.92,0.72-1.23s0.71-1.84,1.12-2.66,0.71-2.14,1.22-2.55a2,2,0,0,0,.41-2c-0.2-.71.71-1,1-2.14a20.77,20.77,0,0,1,.72-2.76,10.8,10.8,0,0,0,.31-3.68,7.85,7.85,0,0,1,.51-3.27,3.35,3.35,0,0,0,.41-1.74A2.82,2.82,0,0,1,376,69c0.3-.31.3-1.94,0.61-2.45s0.41,0.2.51,0.61a16.81,16.81,0,0,1-.1,3.06c-0.1,1,0,4.29,0,5.31s0.1,1.94.1,3,0.1,2.55.1,3.68,0.41,3.37.41,3.78v3.78c0,1.23-.41,5.62-0.41,6.43a3.88,3.88,0,0,1-.71,1.74c-0.21.51,0.31,0.92,0.2,2s-0.41,3.88-.41,4.39a14,14,0,0,1-.41,3.06,13.51,13.51,0,0,0-.72,2.35c0,0.61.41,1.23-.1,1.94s-0.2,1.63-.41,2.76-0.51,1.63-.82,2.86a21,21,0,0,1-1.43,4.49,8.73,8.73,0,0,0-1.12,2.14,2.4,2.4,0,0,1-1.33,1.33c-0.51.41,0.2,0.92,0.1,1.74s-0.51.41-.92,1-0.82,1.23-1.63,2.25a20.2,20.2,0,0,1-3,3c-0.82.61-1.12,0.1-1.74,0.41s-1.12.31-1,.82,1.33,0,1.94.2,0.2,0.92.31,1.53,0.1,1.12.72,1a15.07,15.07,0,0,1,2.14,0,3.71,3.71,0,0,0,1.74-.71,1.56,1.56,0,0,1,1.33-.2,4.55,4.55,0,0,0,1.84-.51,5,5,0,0,0,1.64-1c0.41-.31,1.33-0.31,1.73-0.71a7.32,7.32,0,0,1,1.94-1.33,8.51,8.51,0,0,0,2.25-1.84c0.51-.61,1.12-0.82,1.43-1.23a12.08,12.08,0,0,0,1.12-2,13,13,0,0,1,1.23-2.35,7.54,7.54,0,0,0,1.23-2.66,4.36,4.36,0,0,1,.61-1.84,7.74,7.74,0,0,1,1.53-1.74c0.61-.51.41-2,0.82-2.45a4.89,4.89,0,0,0,.72-2c0.1-.51.92-0.41,0.92-1s0-1.23.51-1.33,0.3-1.84.41-2.15a10.34,10.34,0,0,1,1.12-2.45c0.41-.41.31-2,0.31-2.55s0.92-.82,1.4-1.7a3.67,3.67,0,0,0,.14-2.11,2.81,2.81,0,0,1,.75-1.29c0.27-.34,0-1.43.14-1.91s0-2,.2-2.45a4.11,4.11,0,0,0,.14-2.11,3.64,3.64,0,0,1,.27-2.38,2.8,2.8,0,0,0-.27-2.66c-0.48-.61.2-1,0.27-1.5a4.87,4.87,0,0,0-.41-2c-0.21-.48.61-1,0.68-1.29s0.07-2.18.14-2.93a6.56,6.56,0,0,1,.27-2.38,4.05,4.05,0,0,0,.34-2.66,1.33,1.33,0,0,1,0-1.57,3.45,3.45,0,0,0,.34-2.18c-0.07-.48-0.27-1.23,0-1.43a3.55,3.55,0,0,0,.14-2.25c-0.21-.41.27-1.16,0.07-1.63a20.76,20.76,0,0,1-.27-4.49c0.07-1.29-.07-2.11.34-2.59a2.65,2.65,0,0,0,.34-2,19.88,19.88,0,0,1,.07-2.86c0-.54.75-2.86,0.82-3.88a17.53,17.53,0,0,1,.41-3.13c0.2-.61-0.48-1.84-0.48-2.25s0.41-1.29.54-2a3.6,3.6,0,0,0-.07-2c-0.21-.2.34-1,0.48-1.7s0.27-2.11.41-2.66-0.54-1-.75-1.29,0.48-1,.48-1.57a9.22,9.22,0,0,1,.54-2.45c0.21-.48-0.2-1.63-0.34-2.45a5.19,5.19,0,0,1,.14-2.59c0.27-.34-0.2-1.23-0.07-2.32a9.8,9.8,0,0,0-.34-2.79c-0.34-.61-0.48-1-0.14-1.29a1.49,1.49,0,0,0,.27-1.5,2.47,2.47,0,0,1-.34-1.43,1.54,1.54,0,0,0-.75-1.57,3.66,3.66,0,0,1-1-2c-0.13-.48-0.61-0.48-1.16-0.82a27.23,27.23,0,0,1-2-2,15.56,15.56,0,0,0-2.45-1.77,26.08,26.08,0,0,0-4-2.11,4.79,4.79,0,0,1-1.77-.89,6.13,6.13,0,0,0-3.13-.61c-1.16,0-2.11.41-2.18,0.75a0.86,0.86,0,0,1-.48.68c-0.27.14-1-.48-1.64-0.68a4.52,4.52,0,0,0-1.77.2,3.45,3.45,0,0,0-1.57.34c-0.41.27-.34,1-0.88,1.09s-0.27.55-.07,1.09a4.22,4.22,0,0,1,.75,1.57,23.05,23.05,0,0,1-.2,3.68,1.36,1.36,0,0,0,.48,1.5c0.27,0.2.14,1,.2,1.91a27.72,27.72,0,0,1-.2,3.61,4.69,4.69,0,0,0,.14,1.7,2.83,2.83,0,0,1-.14,1.5c-0.14.54,0.41,0.75,0.48,1.43a15.11,15.11,0,0,0,.34,2.52,4.84,4.84,0,0,1,.07,1.7,19.07,19.07,0,0,0,.2,2.66c0.14,0.68.14,0.82-.2,1S375,35.48,374.92,37s-0.07,1.84.34,2.32,0.34,0.75.34,2.38a14.46,14.46,0,0,1-.75,3.81c-0.21.88-.48,2.79-0.75,3.88s-0.68,3-1.09,4.08a16.89,16.89,0,0,0-1.16,3.4,3.5,3.5,0,0,1-.75,1.91A23.33,23.33,0,0,0,369.88,62a27.6,27.6,0,0,1-1.43,3.81c-0.54.89-2.18,5-3,6.67s-2.18,4.22-2.59,5.18-2.11,3.61-2.66,4.63-0.68.82-1,.48-0.21-.54.07-0.82,0.07-.89.07-1.63-0.2-2-.27-2.66a24,24,0,0,1,.2-3.68,7.42,7.42,0,0,0-.2-2.86,4.06,4.06,0,0,1-.34-2c0.14-.61.48-1.84,0.14-2.25a3.23,3.23,0,0,1-.48-2.25,3.5,3.5,0,0,0,.13-1.84,11,11,0,0,1-.07-2.59A5.93,5.93,0,0,0,358.1,58a1.3,1.3,0,0,1,.48-1.36c0.34-.34-0.07-1.57-0.07-1.57V54.48c0-.61-0.13-1.63.2-2a1.43,1.43,0,0,0,.07-1.57c-0.27-.54-0.41-1.09-0.07-1.29a1.77,1.77,0,0,0,.48-1.43c0.07-.75,1-0.82.88-1.23a1.53,1.53,0,0,1,0-1.43,2.75,2.75,0,0,0,.48-1.5,10.27,10.27,0,0,0-.14-2c-0.13-.34,0-1.84-0.07-2.45a20.27,20.27,0,0,1-.41-2.93,4.48,4.48,0,0,0,.07-2.11,6.5,6.5,0,0,1-.75-1.16c-0.07-.48.34-0.54,0.41-1.09a1.53,1.53,0,0,0-.61-1.36c-0.41-.34-0.61-1-0.34-1a0.62,0.62,0,0,0,.34-1c-0.48-.41-0.41-1.7-0.89-2.38a6.85,6.85,0,0,0-1.57-1.77c-0.48-.27-1.5-1-2.52-1.7a36.62,36.62,0,0,0-3.61-2.18c-0.89-.41-2.45-1-3.2-1.43a34.15,34.15,0,0,0-3.54-1,2.26,2.26,0,0,0-1.77.07,3.76,3.76,0,0,0-1.43,1,5.64,5.64,0,0,1-2.18.41,14.66,14.66,0,0,1-1.91.14,7.69,7.69,0,0,0-2.18.14c-0.61.2-.94,0.38-0.54,0.88a14.84,14.84,0,0,1,1.46,2.45c0.51,1-.1,1.23.41,1.94S336,27,336,28.87s-0.2,4.39-.1,5.21-0.31,1.74.1,1.74,0.82-.31.72,0.31,0.1,3.37.1,4.8-0.1,3.27-.2,4.29a5.85,5.85,0,0,0,.41,2.45c0.2,0.71-.31,2.14-0.21,3.17a7.42,7.42,0,0,0,.51,2c0.21,0.61-.71,1.53-0.82,2.45s0,3.27,0,4.09a19,19,0,0,1-.51,2.86,39.6,39.6,0,0,0-.61,4.29c0,0.31,0,.82,0,1.38-0.28.77-.55,1.5-0.86,2.3-0.51,1.33-.2,3.27-0.51,5.72s-1.33,5.92-1.53,7.56a45.56,45.56,0,0,1-1.94,6.54c-0.41,1.12-.3,1.23-0.82,2.55a38.1,38.1,0,0,1-1.33,4.19,44.56,44.56,0,0,1-2.76,5.21,3.94,3.94,0,0,0-.82,2.14c-0.1.82-.51,0.41-1,1s-0.92,1.33-1.63,2.14-1.22.51-1.22,0.1a5.13,5.13,0,0,0-.1-1.74,14.47,14.47,0,0,1-.61-2.45,22.23,22.23,0,0,1,.2-2.25c0-1-.2-2.76-0.31-3.88a5.22,5.22,0,0,1,.41-2.25,6.55,6.55,0,0,0-.31-3.37c-0.41-1.12,0-1.53.1-2.66s-0.41-1.94-.51-3-0.92-2.14-.82-3.06,0.61-1.84.51-2.45a4.39,4.39,0,0,0-.51-2.15c-0.51-.71.1-1.53,0.1-2.14s0.61-.92.72-1.53-0.51-1-.51-1.74,0.82-1.23,1-2a33.7,33.7,0,0,0,.2-3.37,11.1,11.1,0,0,0-.2-3.78,3.14,3.14,0,0,1,.2-2.15,11.32,11.32,0,0,0-.2-3.06c-0.1-1,.92-1.84.92-2.66s0.41-2.45.51-4.29a20.26,20.26,0,0,1,.92-4.19c0.21-.92.1-2.25,0.61-3.06s0.61-3.06.82-4.29,0-3,.1-4.09a36.83,36.83,0,0,0,.61-4.49c0-1.74,0-3.27.1-4.6s0.21-1.74-.2-2.25-0.1-1.63.31-2.55-0.41-1.63-.2-2.66a6.53,6.53,0,0,0-.31-2.86c-0.2-.82-0.31-2.14-0.51-3.17s0.1-2.76-.31-3.47-0.21-1.74-1.23-3a31.08,31.08,0,0,0-5-4.29A17.67,17.67,0,0,0,312.21.17c-1.23-.31-3-0.2-3.58.31S307,1.3,306.79.68,305,0.07,304.86.48s-0.82.51-1.74,1-0.83.91-.31,1.43,1,1.43.61,2a3,3,0,0,0-.2,2.15A6.26,6.26,0,0,1,302.92,9c-0.1.92-.82,1-0.71,1.63s0.71,0.31.92,1,0,4.29.1,5-0.41,1.23-.51,1.84,0.41,1.12.2,1.94a4.82,4.82,0,0,0-.2,2.45c0.2,1-.31,4-0.31,4.7V30.3a16.69,16.69,0,0,1-.41,3.27,1.78,1.78,0,0,0-.1,1.43,9.36,9.36,0,0,1,.2,1.84,22.2,22.2,0,0,1-.82,4.09,38.49,38.49,0,0,0-.1,4.8c0,0.82-.41,1-0.31,1.94a11.25,11.25,0,0,1-.1,3.27,12.11,12.11,0,0,0-.1,2.86v4.9a14.46,14.46,0,0,0-.1,2.86,1,1,0,0,1-.31.92,2.6,2.6,0,0,1,.31,1.23c0,0.72-.51,1.43-0.31,2a4,4,0,0,1,.2,2.14,8.21,8.21,0,0,0,.61,3.17,1.65,1.65,0,0,1-.1,1.43,1.86,1.86,0,0,0,.61,1.74c0.51,0.51-.1,2.35-0.41,3.37a12.6,12.6,0,0,0-.1,3.88,5.43,5.43,0,0,1,0,1.52c-0.47,1.6-1,3.4-1.29,4.16-0.41,1-.41,1.63-1.09,3.68a22,22,0,0,1-1.36,3.68,7.74,7.74,0,0,1-1.09,1.77,1.87,1.87,0,0,0-.54,1.63c0,0.68-1,2.18-1.64,3.54a19.72,19.72,0,0,0-1.77,3.95c-0.27,1.23-1,1-1.36,2.18s-1.09,2.45-1.36,3.27a20,20,0,0,1-1.23,2.31,16.94,16.94,0,0,0-1.36,2.72c-0.27,1-.82.54-1.36,1.23a2.77,2.77,0,0,1-2,.82c-0.82.14-1-1.36-1-2s0.41-2,.41-3.13a16.77,16.77,0,0,0-.27-2.72c-0.14-1,.41-0.68.41-1.36a14.85,14.85,0,0,1,.14-2.31,7.61,7.61,0,0,1,1-2.18c0.41-1,0-1.63,0-2.72a16,16,0,0,0,0-2.59,3.6,3.6,0,0,0-.82-1.23,14.29,14.29,0,0,0,.41-2.59,29.51,29.51,0,0,1-.14-3.54,8.84,8.84,0,0,0-.27-2.86c-0.14-.68.54-1.5,0.68-2.18a17.48,17.48,0,0,1,.54-2.59c0.27-.68-0.54-3.13-0.54-3.95s0.68-.82.68-1.91,0.41-2.59-.14-3.27S285,73.54,285,73s0.27-1.23.27-2.45V66.05c0-.68-0.41-1.09,0-1.63s0.27-2,.27-2.86a7.77,7.77,0,0,0,.14-1.77,18.36,18.36,0,0,1,.14-4.63,14.86,14.86,0,0,0-.14-4.49c-0.14-.55.27-0.82,0.68-1.63s-0.54-2-.68-3a15.62,15.62,0,0,1,.14-2.45,13.34,13.34,0,0,0-.54-2.86c-0.14-.68.41-1.5,0.54-2.31s-0.68-1.63-.41-2.45S285,33.5,285,32.82a5.77,5.77,0,0,0-.14-2.59,15.07,15.07,0,0,1-.54-4.49c0-1.5.14-2,.14-3.81a5.85,5.85,0,0,0-1.63-4.29c-1-1-2.45-1.43-5.31-2.25s-4.09-1-4.9-.61A13.63,13.63,0,0,1,270.13,16c-1.23.41-1.63-.2-2,0.61s-1,1.43-2,.82-1.63,1-2.66,1.84-0.66,2,.41,3.27c0.75,0.89,1,2.79,1,4.56s-0.54,2.59-.68,4.63-0.14,3-.68,3.95,0.41,0.54.68,1.23S263.73,38,264,38.81a6.58,6.58,0,0,1,.41,2.86,47.57,47.57,0,0,1-.54,5,17.92,17.92,0,0,1-.68,4.22c-0.55,1.77.14,2.45,0.14,3.13s-0.54,1.09-.54,3.13,0.41,4.22.27,5.17-0.14,2.32-.27,3.95,0.41,2.31,0,3.27a1.85,1.85,0,0,0,.14,2c0.41,0.82.14,2,.27,3.4s-0.41,1.63-.41,2.86,0.14,3.4,0,4.49-0.54,1-.27,1.5a4.42,4.42,0,0,1,.14,2.45,24,24,0,0,0,0,3.13c0,1.09,0,2.18,0,3.13a10.33,10.33,0,0,1-.14,2.18c-0.14.68,0.54,1.5,0.82,2.86s0,1.77.41,2.59-0.82,1.09-.82,2a11.87,11.87,0,0,0,.26,3.28,13.2,13.2,0,0,1-.61,1.25c-0.41.61-1.12,2.35-1.63,3.27s-0.51,1.74-1.12,3.27a66.37,66.37,0,0,1-3.27,5.82c-0.41.72-1.33,2.76-1.63,3.37s-1,1-1.12,1.84-1.63,1.94-2.55,3.17-1.43,2.35-2.15,2.45-0.1-1.23-.2-1.84a1.41,1.41,0,0,1,.51-1.53c0.51-.31-0.1-1-0.2-1.53a3.85,3.85,0,0,0-.41-1.63c-0.31-.31,0-3.06,0-3.57s0.51-.61.82-1.33a5.4,5.4,0,0,0-.2-2.86,5.16,5.16,0,0,0-.51-1.63c-0.31-.31.2-1.23,0.71-1.84s0-2.86,0-3.47a3,3,0,0,1,.51-1.33,2.28,2.28,0,0,0-.31-1.43,1.47,1.47,0,0,1,.2-1.43c0.41-.41.1-1.53-0.1-2.25a6.62,6.62,0,0,1,1.16-4.39,4.54,4.54,0,0,0,.14-2.31c0-.54.54-0.82,0.41-1.36a8.17,8.17,0,0,1,0-2.59c0.14-1,.41-3-0.27-4.09s-0.41-2-.41-3.54-1.09-2.72-1.77-3.81A8.14,8.14,0,0,0,246,77.9c-0.82-.41-2-0.54-2.86-1-0.53-.27-1.36-0.59-2.2-1.05,0-1,0-1.73,0-1.88a3.65,3.65,0,0,0-.51-2.14,2,2,0,0,1-.31-1.94c0.1-.71-0.92-0.71-0.71-1.33s1.23-1.23.92-2.35-1.94-1.53-1.94-1.53A5.54,5.54,0,0,0,238,63c-0.31-.51-2.45-1.12-4.6-2a15,15,0,0,0-5.11-1.23c-1.33-.1-2.25-0.82-3.17-0.51a7.5,7.5,0,0,1-3.27.31c-1.63-.1-2.25.31-3.47,0.2s-1.53.51-2.55,1.43-1.53.2-1.63,0.71a1.15,1.15,0,0,1-1.33.72,2.37,2.37,0,0,1-2-1.12c-0.51-.82-1.53.1-2,0.2s-2.14-.1-2.25.31a7.37,7.37,0,0,1-.82,2.45c-0.61,1,.41,1,0.31,2.14a4.2,4.2,0,0,1-.92,2.35c-0.41.51-.2,1.12-0.92,1.94s-1.33,3.47-1.63,4.49a8.29,8.29,0,0,1-1,2.14c-0.51.92-.31,3.17-0.72,4.49s-0.61,2.76-.92,4.29-1.33,7.15-1.53,8.78-0.92,3.17-1.43,5.92a67.85,67.85,0,0,0-1.12,7.76c-0.2,2.76-.61,6.64-0.51,8.07s0.1,1.23-.2,1.84,0.41,1.23.1,1.84,0.31,1.23.1,2.25,0.1,1.74-.1,2.66a5.45,5.45,0,0,0,.51,2.55c0.2,0.82.2,2,.41,3.27s0,1.94.2,3.17,0.61,4.49.72,6.13a7.69,7.69,0,0,0,.11.84,9.09,9.09,0,0,1-1.34,1.41c-0.92.71-.71,0.71-2,1.94s-2.14,1.94-4.49,4.39-3.88,4.49-4.7,4.9-1.33,1.53-1.84,2.25-1.33.82-1.74,1.53-2.25,2.25-4.7,4.7-5.31,4.8-7.25,7a41.46,41.46,0,0,1-5.92,5.21c-0.82.61-1.53,0.61-1.63,0.1a2.1,2.1,0,0,1,.82-1.74c0.61-.61.51-1.74,0.92-2.55a20.79,20.79,0,0,0,1.53-3.37,5.13,5.13,0,0,1,1.43-2.76,5.05,5.05,0,0,0,1.33-2.35A19.16,19.16,0,0,1,169,159.4a21.37,21.37,0,0,0,1.53-3.06,5.87,5.87,0,0,1,.82-2.14,14.62,14.62,0,0,0,1.63-2.35,20.77,20.77,0,0,0,2-4.39,7.9,7.9,0,0,1,.71-2.35c0.31-.51.92-1.74,1.53-2.86a14.62,14.62,0,0,0,1-3,4.39,4.39,0,0,1,1.53-1.63,19.17,19.17,0,0,0,2.25-3.37,8,8,0,0,0,.92-3.57c0.1-.72.92-0.92,0.2-1.33s-0.51-2.14-1.33-2.86-1-1.63-1.84-2.14-1.74-1.33-3.27-2.45a5.25,5.25,0,0,0-3.06-1.33c-0.92-.1-1.74-0.31-2.55-0.41a27.61,27.61,0,0,0-4.09-.1c-0.71.1-1.53,0.61-2.76,2.25s-2.45,2-4.09,3.27-4.19,1.53-5.92,2-1.63-.1-1.63-0.61,1.12-.92,1.74-1.74a10.75,10.75,0,0,0,1.53-3.06c0.2-.82.92-1.12,1.53-2s0.92-.82,1.74-1.84,2.55-3.17,3-3.78a5,5,0,0,1,1.53-1.74c0.72-.41,1-1.33,1.74-2.45a18.43,18.43,0,0,1,4.29-4.09,7.43,7.43,0,0,0,2.76-2.86c0.2-.61,1.23-0.72,1.74-1.12a11.86,11.86,0,0,0,2.55-2.14c0.51-.82.92-0.31,1.84-0.51a5.53,5.53,0,0,0,2.25-1.43,18.72,18.72,0,0,1,1.94-1.53,3,3,0,0,0,1.63-.82,1.06,1.06,0,0,1,1.63-.1c0.61,0.41,1-.92,1.84-1.74a33.14,33.14,0,0,0,2.66-2.76c0.61-.82-0.31-0.92-0.1-1.23a2.73,2.73,0,0,0,.61-1.63c0-.82.61-2.35,0.41-3.57A15.33,15.33,0,0,0,190,81.17c-0.41-.82-1.12-2.25-1.63-2.35s-0.71-.82-1.43-2.15a33.36,33.36,0,0,0-4.49-5.41c-1.94-2-3.57-1.84-4.09-2.14s-1.84-.92-2.45-0.41-0.06.84-.51,2a16.26,16.26,0,0,1-2.86,3.2,3.66,3.66,0,0,0-1.23,1,13.53,13.53,0,0,1-2.38,1.91c-1.23,1-4.43,3.88-6,5.31s-4.7,4.56-5.24,5.11a6.81,6.81,0,0,0-1.23,1.09,15.46,15.46,0,0,1-2.59,3.54c-1.77,1.91-4.09,4.22-5.52,6a57.86,57.86,0,0,0-4.09,5.79c-0.89,1.5-2.11,2.93-2.38,3.4a3.63,3.63,0,0,1-1.36,1.63c-1,.75-1.16,1.77-1.7,2.31s-0.61,1.5-1.16,2.66-1.09,1.57-1,2.11-0.61,1.09-1,1.77-1.16,1.09-1.16,1.7-1.36,1.09-1.57,1.91a8.2,8.2,0,0,1-1.43,2.38C131,124,131.15,125.29,130.75,126.45Zm88.62-21.59c0.51-.82.31-3,0.2-3.88s0.71-1.43.31-1.94a2.41,2.41,0,0,1,.1-2.35c0.41-.51.51-3.37,0.82-4.7s0.82-2.35,1.12-3.68,0.41-2.86.92-3.27,0.51-3.57.1-5.11c-0.17-.62.1-0.92,0.61-0.31a38.85,38.85,0,0,1,2.35,5.72,7.08,7.08,0,0,1-.2,3.88c-0.31,1-1.53,3.37-1.94,4.6a55.28,55.28,0,0,0-1.12,7.35,14.16,14.16,0,0,1-1.33,4.19,21.85,21.85,0,0,1-2.27,4,23.73,23.73,0,0,0,.13-2.44C219.06,106,218.86,105.68,219.37,104.86Zm-2.76,26.35a3.68,3.68,0,0,0,.1-2.35c-0.2-.71.41-1.74,0.41-2.86,0-.33,0-0.83,0-1.41a10.14,10.14,0,0,0,.88-1.24c0.31-.61-0.2-1,0.1-2.14a15,15,0,0,1,1.43-2.86c0.51-1,1.23-1.84,1.12-2.45s0.82-1,.82-1.53a2.36,2.36,0,0,1,.41-1.94,23.56,23.56,0,0,0,1.84-2.35,23.29,23.29,0,0,0,2-3.17,7.89,7.89,0,0,1,1.43-2.14c0.33-.33.74-0.87,1.4-1.56a1.73,1.73,0,0,0,0,.23c0.41,1.63.51,1.63,0.31,2.35a13.21,13.21,0,0,0-.31,3c0,0.92.51,0.82,0.82,2.45a30.41,30.41,0,0,1,.1,4.09c0.1,0.41-.31,1.43,0,2a22.31,22.31,0,0,1,.41,3.06c0.19,0.83.29,2.09,0.53,3.91-0.34.51-.63,0.93-0.84,1.2-1.12,1.43-1.33,3.06-2.45,4.8s-2.55,5.31-3.68,6.43-0.71,1.94-1.33,2.76-1,1.23-2,2.55-2.45,3.47-2.86,3.78-0.31-2.35-.2-3.78-0.51-1.74-.61-2.86a32.77,32.77,0,0,0-.61-4.49A4.4,4.4,0,0,1,216.61,131.21Z" transform="translate(0)"/><path d="M147.09,196.38a2.92,2.92,0,0,0-1.23.75c-0.55.41-.41,0.68,0,0.41s0.54-.34,1.23-0.75S147.63,196.24,147.09,196.38Z" transform="translate(0)"/><path d="M143.27,198.42c-0.45.18-.34,0.41,0.14,0.27S143.62,198.29,143.27,198.42Z" transform="translate(0)"/><path d="M134.08,349.38a12.22,12.22,0,0,1,2.23-.85l0.32,0.45c0.31,0.41,0,.71,0,1.33s0.92,1.12,1.23,1.53,0.92,0.41.82,0.82a2.35,2.35,0,0,0,.61,1.63,8.49,8.49,0,0,0,1.23,1.63c0.61,0.51.92,1.43,1.87,2,0.5,0.29,1.23,0,1.91.55s-0.54,1-.54,1,0.68,1.36,1.09,2.31,0.41,1.63,1.09,1.77,1.23,0.68.54,1.09,0.54,1.23,1.77,2.18a31.88,31.88,0,0,1,2.72,2.31c0.55,0.55,2.45,2.18,3.27,2.32s0.54,1.23.68,2.18,1.63,0,2.59-.68,0.41-1.63.68-2.59a4.16,4.16,0,0,1,1.63-2.45c1-.68.68-1.77,1-2.45a12.76,12.76,0,0,0,.82-2c0.14-.68,0-1.63,1-1.91s0.68-.82.41-1.63a8,8,0,0,0-1.36-2.18c-0.68-1-.41-2-0.68-2.72a8.82,8.82,0,0,0-2.18-2.45,3,3,0,0,1-.82-2.59,6.52,6.52,0,0,0-1.23-2.86c-0.54-1-1.23-1.5-2.18-2.86s-1.09-2.59-1.77-2.59-1.5-1.23-2-2.32-1.5-1.22-1.63-1.91a22.69,22.69,0,0,0-.82-3.27,16.73,16.73,0,0,1-.68-3.4,28.73,28.73,0,0,0-1.36-4.09c-0.41-1.09-1.91-3.27-2.18-4.9s-1.63-4.09-2-5.31-1.63-3.27-1.91-4.77-1.36-1.09-1.36-2a5.1,5.1,0,0,0-1-2.86c-0.68-1.09-2.32-3.27-2.45-4.49a15.59,15.59,0,0,0-1.77-5c-0.54-.54-0.68-1.77-1-2.18a34.07,34.07,0,0,1-1.5-3.68,21,21,0,0,1-.68-2.31c-0.14-.68.41-1.77-0.55-2.45s-0.68-2.72-1.36-3.54,0.14-1.77.14-2.59-1.23-3-1.77-3.95-1.23-1.09-1.09-1.77a2.17,2.17,0,0,0-.82-2.18c-0.82-.68,0-1.91-0.27-2.45s-1.09-.68-0.68-1.36a4.6,4.6,0,0,0-.14-3.54,3.63,3.63,0,0,0-1.5-2c-0.68-.41.68-1,0.27-1.36s-1.09-1.09-1-1.63a0.85,0.85,0,0,0-.68-1.23c-0.68,0-.27-1.77-0.27-2.45a22.15,22.15,0,0,0-1.77-5,4.19,4.19,0,0,1-1.09-1.77,5.17,5.17,0,0,0-.54-2.59,19.36,19.36,0,0,1-1.09-4.22,12.84,12.84,0,0,1-.82-3.13,9.53,9.53,0,0,0-.82-3.13,33.91,33.91,0,0,0-1.09-3.41,2.17,2.17,0,0,1-.68-1.36,11.85,11.85,0,0,0-1.09-3.81,29.06,29.06,0,0,1-1.23-3.81,2.56,2.56,0,0,0-1.09-1.5c-0.41-.14-0.14-1-0.41-1.77a3.72,3.72,0,0,0-1.91-2.18c-1-.41-0.54-2.59-1-3.13a5.13,5.13,0,0,1-.68-2.18c-0.14-.82-0.54-0.14-1-0.14a2.28,2.28,0,0,1-1.5-.82,1.91,1.91,0,0,1-.68-1.63s-0.54,1.77-1.5,1.36,0.54-1.5-.48-1.5-1.84-1.23-2.66-1.23A1.89,1.89,0,0,1,95.88,208c-0.41-1-2-.61-3.27-0.61a25.66,25.66,0,0,1-5.92-1,5.4,5.4,0,0,0-2.86-.34,4.7,4.7,0,0,1-3.27.54,5.11,5.11,0,0,0-4.36,1.91c-0.82.82-2.56,1-.82,1.91a4.84,4.84,0,0,1,2.21,2.31c0.2,0.82,1.53,3.17,1.84,4.9A13.9,13.9,0,0,0,81,221.81c0.82,1.74,1,3.88,1.43,4.9s0.92,1.53.82,2.14,0.72,1.94,1.43,2.86a33,33,0,0,1,2,4.29c0.51,1,1.12,3.78,1.63,4.19s0.31,0.41.31,1.33,0.82,1.43,1,2.14,0.61,1,.92,1.94,1.94,2.86,2,3.47-0.1,1.12.41,1.53a2.34,2.34,0,0,1,.82,1.74c0,0.61.31,0.92,1.12,1.74s0.31,1.43.51,2.66,1.53,3.57,2,4.9,1.33,2.35,1.53,3-0.82.61-.2,1.23a10.91,10.91,0,0,1,1.33,2.14,9,9,0,0,1,.92,3.06c0.2,1.12.71,2.66,0.92,3.37,0.07,0.25.11,0.47,0.17,0.72a16.28,16.28,0,0,0-3.65-1.53c-1-.2-2.45.21-4.09,0.21s-1.43.41-2.66,0.41,0.41,1.63.41,2.25a21.25,21.25,0,0,1-.41,3.06c-0.2,1-2,9.81-3.06,13.07s-1,7.56-1.43,8.58a33.9,33.9,0,0,0-1.23,3.27c-0.2.82,0.61,1.63,0.2,2.86s-0.2,2.45-1,3.47A5.76,5.76,0,0,0,83.83,313c-0.2.82,0.55,0.34,0.68,1.43s-0.68,2.72-.68,3.4,0.68,2,0,2.59,0.55,1.09-.27,1.77a3.33,3.33,0,0,0-1.09,2.45c0,0.68.41,2,0,2.86s0,0.54-.14,1.77-0.54,1.91-.54,2.72a5.34,5.34,0,0,1-.27,1.77c-0.14.41,0.68,0.14,0.54,1.09s-0.41,2.31-.41,2.86,0.27,0.68-.14,1.23,0.54,1.77,0,2.18a3.73,3.73,0,0,0-1.09,2.45,2.76,2.76,0,0,1-.82,1.91c-0.41.41,0.54,2.18-.14,2.18s-1.09,1.63-.54,1.91a1.35,1.35,0,0,1,.54,1.63,41.23,41.23,0,0,0-.27,4.22c0,1,.27,2.18-0.41,2.86s-0.55,1.5-1.09,2-0.41.54-.14,1.63a5,5,0,0,1,0,1.38A38,38,0,0,0,71,365.93c-2.86,1.43-5.52,2.66-5.52,2.66-1.63.2-2.45-.61-3.27-0.82s-1,.41-0.41,1.84,1,1.84.82,2.86,1,1.43,1.63,2,0,1.84,1.63,2.45,2,1.43,2.86,2.66,1.23,2,2.25,1,1.43-1.43,2.66-1c1.07,0.36,2,.71,2.33.26a10.59,10.59,0,0,1-.29,3.35c-0.41,1,.27,1.09-0.27,1.77s-0.68,1.23-.27,1.5,0.41,0.27.27,1.63a20.08,20.08,0,0,0-.14,3.95,9.59,9.59,0,0,1,.14,2.72c-0.14.68,0.14,1.91,0,2.59s0.14,1.23-.41,1.36-0.54,1.23-.14,1.91,1.77,1.36,1.63,2a1.38,1.38,0,0,1-.82,1.23c-0.54.27-1.09,0-.68,1a1,1,0,0,0,1.5.68c0.41-.27.14,0.68,0.55,1.09s0.68,1.5,1.23,1.36,1.36-.27,1.23-0.68a3.39,3.39,0,0,1-.27-1.09c-0.14-1,.27-1.36.14-2s0-.41.68,0.27,0.68,1.09,1.23,1.63,0.41,2.45.82,1.91,1.23-1.77,1.23-1.77,1.23,1.09,1.5.54a5.15,5.15,0,0,0,0-2c0-.41.54-0.41,0.82-1s1.09-1.23,1.09-.41,0.27,3,.68,3,0.54-.41.54-1.09,0.82-1.63.41-2-1.09-.82-0.68-1.5,1.5-.54,1-1.5a9.72,9.72,0,0,1-.82-2.72c-0.14-.55.54-1.23,0.68-1.91a3.29,3.29,0,0,0-.54-2c-0.27-.41.82-1.09,1.09-1.5s-0.41,0-.68-1a3.06,3.06,0,0,1,.41-2,0.57,0.57,0,0,1,1.09,0c0.14,0.55-.41,1.77,0,2.45s0.14,0.27.82-.68,1-1.23.82-1.77-0.27-1.77-.41-2.18,0.68-1.63.68-2.18a6.77,6.77,0,0,0-.41-1.77c-0.14-.41.54-1,0.68-1.63s1.36-1.36,1-2-1-1.36-.68-1.77a3.21,3.21,0,0,0,.68-1.36,13.18,13.18,0,0,0-.27-1.63l0.68-1a8.27,8.27,0,0,0,.41-2,18.88,18.88,0,0,1,.7-3c2-.74,7-3.42,8.76-4.21s2.45-1.63,3.88-2.45,2.25-1,4.49-2a33,33,0,0,0,5.72-3.27c1-.82.61-1.23,2-1.63s2.66-1.84,4.7-2.25,2.25-2,4.9-2.45S133.06,350,134.08,349.38ZM122,342.84c-2,.61-8,4.49-10.62,5.31a55.84,55.84,0,0,0-8.17,3.68c-0.61.41-1.23,0.2-2,.82s-2,.21-3.06.61c-0.18.07-.8,0.4-1.7,0.88-0.14-.81-0.54-1.88-0.89-2a1,1,0,0,1-.41-1.63,2.39,2.39,0,0,0,.54-1.5s-1-1.5-.41-1.77,0.68-.13,1.09.55,1-.68.68-1.09a5.46,5.46,0,0,1-.41-2,2,2,0,0,1,.54-1.36,2.42,2.42,0,0,0,.41-2.32c-0.27-1.09,0-.82.54-1.91a10.22,10.22,0,0,0,1-3c0-.41.68,0.27,0.82-1.09s-0.14-4.49.27-5.45,1.36-1.09,1.36-1.91,0.14-2,.14-2.72,0.68-.41,1.09-1.23,0.68-2.59,1-3.27-1.09-.82-0.68-1.36a23.6,23.6,0,0,0,1.5-2.45c0.27-.54.82-0.27,0.82-1.09v-0.82s-0.82-1.09-.41-1.23,0.82,0.27,1.09-.68a22.38,22.38,0,0,0,1.09-4.77c0-1.36-.14-1.91.54-2.72s0.68-2.18,1.09-2.72a18.07,18.07,0,0,0,1.09-3.27l0.54-2.18c0.14-.55,1-1.23,1-1.7a0.89,0.89,0,0,1,.31,1.12c-0.1.82,0.41,0.41,0.41,1a1.19,1.19,0,0,0,.71,1.43c0.71,0.2.61,0.82,0.92,1.43s0.1,1.33.61,1.94,0.2,1,.31,1.84,0,3,.72,3.78a7.86,7.86,0,0,1,1.23,2.45c0.51,1.12.31,1.23,0.72,1.23s0.41-.71.41-1.43,0.82,0.71,1.23,1.12a6.25,6.25,0,0,1,.82,2.15,10.14,10.14,0,0,1,.41,2.86c0,0.71.61,1,1,1.63s0.1,1.12.31,2,1.33,1.23,1.84,1.84,0.2,1.33,1,2.14a6.21,6.21,0,0,1,1.43,2.66c0.1,0.51.51,0.51,0.51,1s-0.31.71,0.31,1a3.22,3.22,0,0,1,1,2.25,1.77,1.77,0,0,0,.51,1.63c0.51,0.31.82,1.94,1.23,2.35a2.17,2.17,0,0,1,.31,1.63c0,0.61-.31.92,0.31,1.33a1.14,1.14,0,0,1,.45,1C128.05,340,123.91,342.28,122,342.84Z" transform="translate(0)"/><path d="M364.64,241.73c-0.14-1.09-.55-2.31-0.68-3.13s-0.55-1.5-.68-2.59-1.09-2.18-1.63-3.27,0.13-1.91-.68-3.13-3.13-5-4.63-7.22-1.36-2.72-2.32-4.22a26,26,0,0,0-2.32-3,5.76,5.76,0,0,0-1-2.59c-0.82-1.09-1.5-3-2.86-4.36s-3.13-4.09-4.49-5.31-3.27-4.22-3.81-4.36a4.76,4.76,0,0,1-2-1.23c-0.68-.68-0.54-2.45-1.23-3s-1.5-.41-1.77-1.23a15.39,15.39,0,0,0-3.13-4.09,5.13,5.13,0,0,1-1.77-3.95c0.14-.82-2-2.18-2.45-3.4s-1-3.68-2.32-4.36-2-1.91-3-2.59a21.49,21.49,0,0,0-2.59-2,12.08,12.08,0,0,0-4-1.09,6.25,6.25,0,0,0-3.68.27c-0.82.41-.68,0.41-1.36,0.14s-0.68.27-1.23,0.68-1.09.27-2.18,0.82a1.38,1.38,0,0,0-.68,2.18c0.54,1,.54,3.27,1,4.09s0.41,3.13.41,4.77,1.23,3.95,1.5,5.72,1.63,2.86,2.18,4.36,4.09,5.86,5.58,8.17,4.63,5.58,5.31,6.67c0.45,0.72,1.14,1.75,1.83,3.06a8.77,8.77,0,0,0-.33,2.86,16.89,16.89,0,0,1-.61,5.92,23.7,23.7,0,0,1-2.86,6.33,25.79,25.79,0,0,1-.82,2.66c-0.41,1,0,1.43-.61,1.63s-0.41.82-.21,1.63-1.22,1.23-1.43,2-1.84,4.09-2.25,6.54-2.53,5-4.52,8.86a22.36,22.36,0,0,1-1.94-3.82,13.59,13.59,0,0,1-.68-4.9,9,9,0,0,0-1.09-4.63c-0.68-1-.68-2.72-0.68-4.08a19.38,19.38,0,0,1,.54-3.68,7.12,7.12,0,0,0,0-3.4,6.65,6.65,0,0,1,0-3.27c0.14-.82-1.09-1.91-1.5-3a14.08,14.08,0,0,0-2.59-3.4c-1-1.09-1-1.63-1.77-1.5s-1.5,1-2.59,1.5-1.36.82-1.23,1.77,0.14,1.5-.41,4.63-0.14,4.22-.27,5.86,0.27,2.86.41,5.31,0.54,6.4.54,8.31a18.1,18.1,0,0,0,1.23,6.13c0.82,2.32.27,3.41,1.64,6a61.79,61.79,0,0,1,2.58,5.86,6.28,6.28,0,0,0,1.22,2.31,4.06,4.06,0,0,1,.77,1.34c-1.12,1.74-2.46,2.9-3.56,4.79-1.43,2.45-4.9,6.54-7.15,10.21s-10,11.23-11.44,12.46a52.76,52.76,0,0,0-4.29,3.68,46.64,46.64,0,0,1-8,5.72c-2.45,1.43-1-.2-0.2-1.84s1.84-3.27,1.63-4.7a3.46,3.46,0,0,1,1.23-2.66c0.2-.82,1.84-1.84,3.27-3.47s1.63-1.84,1.63-1.84l0.41-1.22c0.41-1.23,1.84-2.25,3.27-4.29s2.66-4.49,2.66-5.31,1.63-.82,2-1.84,0.2-1.63.82-2a4.94,4.94,0,0,0,1.63-2.25,2.53,2.53,0,0,0-.2-2,11.77,11.77,0,0,0,1.43-2.45c0.61-1.43.2-2.45-.61-3.68s0-2-.82-3.27-1.23-2-2-2-1-.2-1.63-1.23-2.25-1.23-4.29-2.25a10.39,10.39,0,0,0-6.33-1,5,5,0,0,1-3.47,0c-1.23-.41-1.43.61-2.25,1.23a11.23,11.23,0,0,0-2.25,3.27c-0.82,1.43-2.45,2-3.68,2.66a7.79,7.79,0,0,1-3.88.61c-1.63,0-.41-1.43-0.2-2.45a35,35,0,0,0,.82-3.68,28.3,28.3,0,0,1,2-5.92c0.41-.82,1-2,1.63-3.06s1.43-3.68,2.45-5.31a63.72,63.72,0,0,0,3.27-7.15c0.2-.61,1.63-2.25,2-3.27s1.84-1.63,3.06-3.06,2.45-4.29,3.06-5.11,2-2.66,2-3.68,1.63-1.43,2.45-2.86a61,61,0,0,1,3.68-6.13c1-1.23.61-2.25,1.43-3.06s0-2.66-.82-3.68a4.89,4.89,0,0,1-.82-2.66,4.26,4.26,0,0,1,2.25-1.23c1,0,1-1,.2-1.23s-1.84-2-2.65-3.27-2.25-2-3.27-1.63-1.23.2-1.84-.82-2-2.25-3.06-1.84-0.82-.2-2-0.41-2-.2-2.86,1.23l-1,2c-0.41,1.23-1.84,2.25-2.86,3.47a12.12,12.12,0,0,1-3.47,3.06c-1.23.61-1.84,2-2.86,3.47s-4.7,5.72-5.52,6.74-3.06,3.88-4.29,5.72-4.49,7.15-5.52,8.58a39.27,39.27,0,0,0-3.68,7.15c-0.61,1.84-3.47,8.17-3.68,9.4s-0.82,3.68-1,5.52a8.33,8.33,0,0,1-1.28,3l-0.08-.34c-0.54-2-1-3.68-1.36-5.45a37.73,37.73,0,0,1-.68-5.31c-0.14-1.63-1.09-2.59-1.91-4.49s-1.09-4.09-1.5-4.09a1,1,0,0,1-.54-1.63c0.68-.68-0.41-1.63-0.54-2.86s-1-1.09-1.09-1.63a4.15,4.15,0,0,0-1.09-2.31c-1-1.09-1.91-3-2.45-3.54a4.15,4.15,0,0,1-1.23-1.77,31.66,31.66,0,0,0-2.18-4.36,45.5,45.5,0,0,0-5-6.26,14.81,14.81,0,0,1-2.59-2.45c-0.41-.68-1.36-1.09-1.91-1.91s-3.54-3-3.54-3.68a0.81,0.81,0,0,0-1.23-.82,8.54,8.54,0,0,1-3.27.14c-1.09-.14-1.23.54-2.18,0.82a2.78,2.78,0,0,1-2.72-1,2.85,2.85,0,0,0-3.41-.27c-1.09.68-1.5,0-2.45,0.54s-1.36.27-2.45-.14-2.31.54-3.27,1.23a16.93,16.93,0,0,0-3,2.59c-1,1.09-2,1.5-3,2.45s-1.91,1.77-1.23,1.77a8.67,8.67,0,0,1,2.59.14c1,0.27,1.09,2.72,1.77,3.81s1.36,0.68,2.18,1.63,1.23,0.27,2.18,1.23a9,9,0,0,0,3.4,1.77c1.36,0.54.54,1.63,1.36,1.91a24.72,24.72,0,0,1,3.68,2c0.82,0.54.54,1.09,1.09,1.23s0.54-.14,2,1.09a24.61,24.61,0,0,1,3.27,3.81c0.82,1,.54,1,1.77,1.36s0,1-.41,2.31-0.14,1,.54,1.5a3,3,0,0,1,1.23,1.36,2,2,0,0,0,1.23,1.36,16.72,16.72,0,0,1,3.27,3.54c1.09,1.36,4.09,5.17,4.63,6s0.14,1.23.68,2.45,1,1.23,1.77,2.32a16.86,16.86,0,0,0,2.86,3.68c1.36,1.09,1,1.77,1.09,3.27s0.68,2.32.82,3.81,1.63,3.68,2,5,1.63,2.32,2.18,3.68a53.08,53.08,0,0,1,1.5,7.63c0.54,3.27,1.77,6,1.77,8.17s0.27,6.26,0,8.44,0.27,5.18.41,7.9,0.41,3.81-.14,6-1,5-1.5,6.81a17.66,17.66,0,0,1-2.32,4.9c-1.23,1.91-2,5.72-2.86,7.22a4.9,4.9,0,0,1-2.45,2.31c-1,.54-0.68-0.68-1.5-1.23s-0.82-2.45-1.23-3.68-1.09-2.45-1.63-3.81a15.77,15.77,0,0,0-1.77-2.72c-0.54-1-.82-2.32-1.23-2.86s-0.14-2-.41-3.13-1-1.91-.82-2.59a5.16,5.16,0,0,0-1-3.13c-0.68-1,.14-2.31-1.36-5s-0.82-4-1.09-4.63a4,4,0,0,1-.14-2.18,4.79,4.79,0,0,0-.68-3.27c-0.68-.68.68-1.36,0.27-1.77s0.14-1.5,0-2.31a17.54,17.54,0,0,1-.54-3.41,4.29,4.29,0,0,0-.14-2.59c-0.41-.82.54-1.77,0.14-3s0.68-2.72-.27-3.41,0.14-2.45-.27-3-0.14-2-.54-2.45,1.09-2.45.68-3.27a10.86,10.86,0,0,1-.68-2.86c-0.14-.82-1.36-2-2.32-2.72s-0.82-2.45-1.63-3.13-1.63-.68-2.31-1.63-1.23-1.09-2.45-1.63-2.18-1.36-3.54-2-3.54-.27-5.18-0.54a14,14,0,0,0-2.72-.27,18.93,18.93,0,0,0-3.68.41,6.22,6.22,0,0,0-2.32,1.91,1.78,1.78,0,0,1-1.63.82,4.78,4.78,0,0,0-2.18.82c-0.68.41-.14,1.09,0.68,1.36a2.23,2.23,0,0,1,1.5,1.91c0.14,1,.14,4.77.27,6.13s1.09,2.31,1.36,4.08,0.55,6,.82,7.9a20.27,20.27,0,0,0,1,4.09c0.41,1.22.54,6.81,1.23,8.17s1.09,4.77,1.77,7.08c0.39,1.33.82,1.5,0.82,1.5a0.84,0.84,0,0,1,.27,1.23c-0.54.68-.41,1.23-0.27,2.32a28.9,28.9,0,0,1-.54,5.17c-0.27,2-1.09,5-1.36,8.58s-0.54,6.81-.54,8.17-0.82,2.18-.82,3.68a53.61,53.61,0,0,1-1.36,8.17,93.25,93.25,0,0,1-2.86,9.67c-0.68,1.36-.82.54-1-0.27s-1-1.36-1.5-2.45a11.38,11.38,0,0,1-.82-4,28.17,28.17,0,0,1,.54-3,7.82,7.82,0,0,0-.14-2.59c-0.14-.68.14-1.36-0.68-1.63s0-1.09.14-2a4.36,4.36,0,0,0-.68-2.45,3.45,3.45,0,0,1,0-2c0.14-.82.82-1.5,0.41-2.32a3.76,3.76,0,0,1,0-2.72,9.66,9.66,0,0,0-.54-4.49c-0.54-1.77-.14-3.81-0.14-5.18s-0.41-2.59-.27-3.4-0.54-.68-0.82-1.09,1-1.23,1.09-2a14.88,14.88,0,0,0,.54-3c0-1.23-.54-3-0.68-4.22s0.82-4.09,1.23-5.18a6.41,6.41,0,0,0,.27-2.72c0-1-.68-3.54-0.68-4.36s0.14-2,.54-2.32,0.68-2.18.68-3.27a20.77,20.77,0,0,1,.82-4.63c0.41-1.36-.41-1.36-0.54-2.18s-0.14-2.31-.27-3.13-1-2.45-1.77-2.72-1.63-1.36-2.45-1.91-0.41-1.91-1-1.91a4.48,4.48,0,0,1-2.18-1.36,5.52,5.52,0,0,0-2.86-1.36c-1-.14-1.91-0.82-2.59-0.82a8.08,8.08,0,0,1-2.72-.41A8.47,8.47,0,0,1,159,248.4c-0.82-.54-1.5.27-1.77,0.68s-2,.14-3,0.27a10,10,0,0,0-2.72.68c-1,.41-1.23.68-2,0.54a10,10,0,0,0-2.86,0,7.18,7.18,0,0,0,1.63,2c0.82,0.54.54,1.77,0.68,2.59a12.77,12.77,0,0,1-.54,4.22c-0.41,1.36-.41,3.27.27,2.86s0.82,1,1,1.5-1,1-.14,1.23,0.27,1.23.27,1.91-1.09,3.27-1,4.49-0.27,2.86,0,4.09-0.41,5.17-.68,6.26-0.14,1.77.27,1,1,1.09,1,2.32a5.44,5.44,0,0,1-.54,2.45c-0.27.68-.27,1.5,0.27,1.63s0.54,0.68.14,1.5,0.14,1.36.27,2-1.5.82-1.5,1.36a6,6,0,0,0,1,2.86c0.54,0.54.41,2.18,0.68,3.4s0.27,4.63-.41,5.31-0.27,1.36.68,1.63,0.27,1.09-.27,1.77,0.54,5.86,1,7.22a16.89,16.89,0,0,1,.41,3.68,14,14,0,0,0,1,3.95c0.41,0.82,1,1.23,1,1.77s-0.54,1.09-.14,1.91a4.59,4.59,0,0,1,.68,2.31,8.19,8.19,0,0,0,1.36,4.09c1.09,1.91,1.91,1,2.18,1.63a3,3,0,0,1,0,2.18c-0.27.68,0.68,2,1.09,1.23s1,0.82,1,1.5a4.4,4.4,0,0,0,.82,2.45c0.54,0.68.82,1.77,2,2.59a57.39,57.39,0,0,0,5.86,2.86,25.24,25.24,0,0,0,6.4,1.09c1.09-.14,4.22-0.54,5.58-0.68s2.86-.41,3.54-1.09,1.91-1.09,2.45-2,2.86-4.63,3.13-5.86,1.36-1.63,1.91-2.45,0.54-2.32,1-3.13a27.81,27.81,0,0,0,1.09-4.77,23.58,23.58,0,0,1,1-4.36c0.41-.82-0.14-2-0.14-3.27a17.82,17.82,0,0,1,0-3.81c0.27-1.36,1-2,.68-3.68s-0.27-2.86,0-2.31,1,0.82,1.09,1.5,1.09,0.68.82,1.91-0.41,1.23.54,2.18a12.17,12.17,0,0,1,1.63,2c0.54,1,1,3,1.77,4.49s0.82,1,2,2.18a6.17,6.17,0,0,0,2.31,1.77c1.63,1,.82,1.36,1.91,2a12.68,12.68,0,0,0,3.68,1.63c1.23,0.27,5.72,1.5,6.67,1.77a15.54,15.54,0,0,0,5,.14c1.09-.27,3-0.54,3.68-1.5s2.59-2.18,3.27-2.86a20,20,0,0,0,1.63-2l0.41-1.36c0.41-1.36,1.23-1.91,2.18-3a10.58,10.58,0,0,0,1.91-3.68c0.41-1.22,1.77-5.45,1.91-6.26a12.3,12.3,0,0,1,1.09-3.41c0.54-1,.54-2.72.68-4.22s0.41-5.58.54-6.67-0.14-2.72.41-3.81,0.27-4.09.27-5.45,0-4.36.14-5.72a15.78,15.78,0,0,0-.14-3.81c-0.14-.54.14-1.91,0.14-3.27s-0.41-3.27-.41-4.63-0.58-6.69-.88-9.77c0.16,0.35.32,0.68,0.47,1,0.61,1.22,3.06,3.06,3.88,3.88s2.86,2.66,4.09,3.68a20.6,20.6,0,0,0,5.31,2.45c1.23,0.41,2,.41,1.84,1a34.2,34.2,0,0,0-2,5.11c-0.82,2.86-1.23,3.68-1.23,5.11a7.73,7.73,0,0,1-1.23,3.47c-0.41.82-2,3.88-2,3.88-0.61,1.63,0,2,.41,3.68a20.24,20.24,0,0,0,2,4.7,32.11,32.11,0,0,1,1.84,4.7c0.82,2.25,1.63,2,2.86,3.27s0.82,1,2.66,1.63,1,0.61,2.25.82,1.23,1,2.66,1,1.84,0.41,3.06.41,2.45-.82,3.47-1.23,4.09-1.84,4.09-1.84a8.17,8.17,0,0,1,2.45-2A6.43,6.43,0,0,0,278.3,304c0.61-1.23,1.84-1.23,2.45-2a48.6,48.6,0,0,1,4.49-3.68c1.23-1,5.72-5.92,6.33-6.74s1.84-1.63,1.84-2.25,1.22-2.25,1.84-3.06,2-2.25,2-3.47,1.63-1.43,2.25-3.06,2-2.45,2.66-3.68,2.25-2.66,3.47-4.09c0.59-.69,1.42-1.67,2.21-2.74l1.19,1.38c0.82,1,.27,1.36,1.23,1.63s1,0.68,1.77,1.23a17,17,0,0,0,4.63,1.63c1.09,0.14,5.86,1.77,7.9,2.18a75.89,75.89,0,0,0,7.76,1.09,9.27,9.27,0,0,0,4.36-.55c1.63-.54,2.59-1,3.95-1.36s3.27,0,4.09-.54a23.1,23.1,0,0,0,3.13-2.32,7.34,7.34,0,0,1,2.59-1.91c0.68-.14,1.91-1.5,2.72-2.72s2.86-2.59,3.54-3.27,2.32-1.63,3.81-2.86,0.82-2,1.36-2.86a41.06,41.06,0,0,0,1.63-4.49c0.54-1.36.41-3.54,0.68-5.45s0.13-2.86.68-3.54-0.27-1.23-.82-2.59S364.78,242.82,364.64,241.73Zm-25.87,12.53a3.91,3.91,0,0,1-1.36,3c-0.82.82-1.77,3-2.45,3.68s-1.5,1.91-2.72,2.18-2,1.23-3.13,1.77a6.39,6.39,0,0,1-3.68.68c-1.5-.14-4-0.68-5-0.82a5.47,5.47,0,0,1-3.27-1.36,15.44,15.44,0,0,1-2.18-3.68,19.86,19.86,0,0,0-.91-1.82,23.65,23.65,0,0,0,1.25-2.47c0.41-1.23,1.43-2.86,2-4.7s2.45-4.29,3.06-5.72,1.43-3.88,2-4.9a13.11,13.11,0,0,0,1.84-4.7c0.41-2.25,1-3.88,1.23-4.9s1.43-3.68,1.43-4.7a10.08,10.08,0,0,1,1.23-3.47,9.81,9.81,0,0,0,.51-1.28c1,1.59,2,3,2.35,3.67a70.16,70.16,0,0,1,3.27,6.4c0.82,1.91,1.91,6.26,2.45,7.63a40.88,40.88,0,0,1,1.63,8.31C338.49,249.35,338.9,252.62,338.76,254.26Z" transform="translate(0)"/><path d="M589.41,135.3c-1-1,0,0-1,1s-3.88,3.27-5.51,4.7-1.84,1.84-4.09,4.09-8.17,7.76-9.4,9.19a35.84,35.84,0,0,1-4.9,4.7c-1.63,1.23-6.95,7.76-9,9.81a43.86,43.86,0,0,1-7.15,5.92c-1.84,1-2.66.82-2-.41a22.3,22.3,0,0,0,2-3.88,22.32,22.32,0,0,1,1.84-4.7c0.61-.82,1.84-3.06,2.66-4.09s1-2.86,2-4.29a17.17,17.17,0,0,0,1.64-2.86l0.82-.61c0.82-.61,1.43-2.86,2.45-4.7s2-6.13,2.86-7.76a19.27,19.27,0,0,1,3.68-5.11c1.22-1,1.43-2.25,1.84-4.29s-0.61-3.68-1-5.72-3.06-2.25-4.49-3.88a6.38,6.38,0,0,0-4.09-2.25,18,18,0,0,0-5.72-.41c-1.64.2-2,1.43-2.66,2.45s-3.47,2.45-5.51,3.68-2.86,1.23-5.52,2.25,0-1.63,1-2.66,1.22-3.06,2-4.7,1.22-1,2.45-2.45a34,34,0,0,0,3.06-3.47A9.9,9.9,0,0,1,550,112c0.82-.61,1-2.66,2.25-3.88a30.32,30.32,0,0,1,4.9-3.68c0.82-.41.61-1.84,1.43-1.43s1.43-1,2.66-2.45,2,0.2,3.47-1.23a22.55,22.55,0,0,1,4.7-3.06c1-.61,2.45-1.63,3.27-2.25s2.66-2.45,3.47-3.27,0-2.86.2-4.29-0.61-4.09-.82-4.9a2.17,2.17,0,0,0-1.84-1.63c-0.82,0-.2-1.63-1-2.45s-3.27-3.88-4.9-5.72-3.07-2-3.88-2.66a6.78,6.78,0,0,0-3.27-1c-0.82,0-.61.85-0.61,3.06,0,1-1,1.84-3.27,3.47a167.15,167.15,0,0,0-15.53,14.1c-3.88,4.29-9.8,11.64-11.64,14.1s-2,4.08-3.06,5.11a17.57,17.57,0,0,0-3.27,4.7c-1.43,2.66-2,4.7-3.06,5.92A16.91,16.91,0,0,0,517.3,123c-0.61,1.63-2,5.11-1.84,8.17s0.2,4.09,1,5.72,3.88,4.9,5.11,6.33,1.63,1.63,3.06,1.84,2.86,1,4.49,1.43,2.45,0.61,3.68.2a18.57,18.57,0,0,1,5.11-1.23c2.45-.2,0,0-0.61,1.23a33.38,33.38,0,0,0-2.25,4.7,24.33,24.33,0,0,1-2.25,5.11,42.34,42.34,0,0,0-3.27,9.4c-0.17.8-1.84,4.09-2.86,6.33a7.22,7.22,0,0,0-.36,3l-0.67,1.11a92.51,92.51,0,0,1-6.74,8.38c-1.43,1.63-2,2-3.88,4.29s-2.45,1.84-3.68,3.06-1.84,2.66-3.67,4.9-2.25-.2-2.66-1.23a22,22,0,0,1-.61-3.88,29.26,29.26,0,0,1-1-5.72c0-2.25,0-5.92-.2-8.58a17.77,17.77,0,0,1,0-5.72c0.41-3.06.2-4.7,0.61-5.72a13.27,13.27,0,0,0,.61-3.47c0.2-1.63-.82-1.63-0.82-1.63a19.58,19.58,0,0,0,.61-3.06c0-.82-0.2-7.15.41-8.78a29.15,29.15,0,0,0,1.23-4.29c0.2-1,.2-4.29.61-6.13s0.61-3.27,1-4.7-0.2-2.86.1-3.88,0.71-2.55,1.22-3.88,1.74-3.17,1.64-4.6,0.82-2.45.82-3.37a2.62,2.62,0,0,1,.41-1.84c0.41-.61,0-1.74,0-2.86a30.12,30.12,0,0,1,.72-3.78c0.2-1.33-.31-2.35-0.1-3.06s0.2-1.63.41-2.86a22,22,0,0,0-.41-4.6A4,4,0,0,0,511,96.59c-0.82-.61-0.72-1.94-1.63-2.55s-1.33-.61-1.53-0.1-1.63.41-2.55-.2-1.84-.51-2.76-0.82-1.74.41-2.76,0.71a7.44,7.44,0,0,0-3.57,2.14c-1,1.23-.21,1.94-1.23,4.29s-0.41,2.55-.31,3.57-0.41,1.63-1.12,3a6.36,6.36,0,0,0-1.12,3.58c0.1,1.23-.51,1.84-1.23,3.17a15.52,15.52,0,0,0-1.12,4.39c-0.2,1.12.1,1-.3,2A29.57,29.57,0,0,0,488.5,123c-0.61,1.94-1.74,3.58-2.14,4.8a17.34,17.34,0,0,0-.82,2.45,55.56,55.56,0,0,1-2.65,5.82c-0.61,1.33-1.33,3.78-1.74,4.39s-0.2.71-.71,1.74-0.92.61-1.23,1.63a6.44,6.44,0,0,0-.51,2.25c0,0.92-.82,2-1.12,3a10.69,10.69,0,0,1-.82,2,5.39,5.39,0,0,1-.72,1.53,2.5,2.5,0,0,0-.51,2.25c0.1,1.23-.2,1.12-0.82,2.35s-1.23,2-1.23,1.53a44.88,44.88,0,0,1,.61-4.9c0.31-1.53.31-2,.61-3.47s0.61-3.78.82-5.41a31.93,31.93,0,0,0,.1-4.39c0-1.53.41-3.57,0.51-5.11a25.87,25.87,0,0,1,.2-3.37,3.5,3.5,0,0,0-.51-2.25,11.08,11.08,0,0,1-.31-4.09,4.78,4.78,0,0,0-.1-2,7.59,7.59,0,0,1,.34-3.23c0.35-1.51-1-2.45-1.63-3s-0.54-.68-1.23-1.23-0.82-.54-2.72-1.09-2.86-1.09-4.49-1.63a7.27,7.27,0,0,0-2.45-.68c-0.68,0-1.23.68-1.77,0.41s-1.5.82-2.45,1.23a3.87,3.87,0,0,0-1.91,1.09c-0.82.82-.68-0.14-1.63,0.14s-1.5.54-.82,1.23,1.5,1.23,1.22,2.45a5,5,0,0,1-2.18,3c-1,.54-0.82,1.09-1,2s-0.82,1.5-1.63,2.45,0.41,1.5-.27,2.45-0.82,2.86-1.5,3.68-0.27,1.91-1,3.68-0.82,3.27-1.23,4.22-1.09,2.32-1.91,4.22-2.86,8-3.27,9.12a29.2,29.2,0,0,0-1.36,4.77,13.69,13.69,0,0,1-1.22,3.54,64.35,64.35,0,0,0-1.77,6.67c-0.54,2.18-2.72,8.44-3,9.53a9.55,9.55,0,0,0-.68,2.45c0,1-.82,1.63-1.09,2.18a7.11,7.11,0,0,0-.27,1.91,13.74,13.74,0,0,1-.14,2.31c-0.27,1-.82,1-1,0.14a8.54,8.54,0,0,0-.82-2.45c-0.27-.41,1.09-0.82,1.23-1.23a14.5,14.5,0,0,0-.14-3.27c-0.13-1.22,0-2.59.54-3.13s0-2,.55-2.72,0.54-2.32.54-3.54,0.54-1.91.54-3,0.68-2.45.82-4.22,0.41-3.13.54-4.9,0.41-3.68.68-5.58a24.27,24.27,0,0,0,.14-5.31c-0.14-.54.27-1.91,0.27-3.13s0.27-3.95.41-4.9a4.06,4.06,0,0,0-.54-2.59c-0.41-.68.41-1.23,0-1.77s-0.41-1.63-1.23-2.86a3.64,3.64,0,0,0-2.18-1.91,4.4,4.4,0,0,0-1.63-.27,42.08,42.08,0,0,0-5.31-1,18.09,18.09,0,0,0-4.09.82c-1,.27-2.59.82-3.4,1.09s-1.64-.27-1.91.54-0.07.72,0.54,1.5c1.09,1.36,1,1.91,1,3.75s-1,1.63-1,2.66,0.2,1,.2,3.27-1.23,3.06-1,4.7,0.41,1.23,1,1.63-1.23,1.63-.61,2,0.82,1.43.61,3.27-0.41,2.86-.61,4.9a6.09,6.09,0,0,0,0,2.45,3.91,3.91,0,0,1,1,3.06c0,2.25-.41,2.86,0,4.49a3.72,3.72,0,0,1,.11.86,20.89,20.89,0,0,1-1.2,2.14c-0.82,1.23-1,.41-1,1.5a13.48,13.48,0,0,1-1.77,4.9c-1,1.77-2.18,3.4-2.72,4.63-0.44,1-1.24,1.09-2.11,1.67,0-.33,0-0.7-0.07-1.13a18.36,18.36,0,0,0-1.5-6.26c-0.68-1.5-1.63-3.81-2-5s0-2.45-.41-3.4a34.15,34.15,0,0,0-1.5-3.54,2.5,2.5,0,0,0-2.18-1.36,20.37,20.37,0,0,1-2.45-1.23c-1-.41-2.31.27-3-0.14a9.22,9.22,0,0,0-2.32-1.23,11.06,11.06,0,0,1-1.25-.44l0.16-.51c0.41-1.23,1-3.68.54-4.49a18.79,18.79,0,0,1-1-3.54c-0.55-2.18-.82-1.63-2.32-3.13s-1.5-1.23-3.81-2.32-2.45-1.63-3.4-2-1.64.14-2.18,0.14a3.68,3.68,0,0,0-2,.41c-0.54.41-1.09,0.82-1.23,0.14s-1.63-.36-1.63.68-1,1-1.5,2.31-2.32,5-3.13,7.35-2,5.72-2.18,6.54-0.14,1.63-.27,3.68,0.41,2,0,4.09-0.82,2.86-1,4.09,0.41,1.63,0,3.68-1.5,5.17-1.63,6.81a23.93,23.93,0,0,1-.68,3.68c-0.41,2-.14,3.54-0.54,5.31a15.71,15.71,0,0,0-.68,3.81c-0.14,2-.14,6.54-0.68,7.76s-0.13,2.18,0,3.27a20.9,20.9,0,0,1,.14,4.36c-0.14,1.91-.27,9.53.13,11s0.68,5.58,1.5,6.81,1.91,1.77,1.91,2.72a5.41,5.41,0,0,0,1.23,3,8.36,8.36,0,0,1,1.23,3.13,8.93,8.93,0,0,0,1.09,2.86c0.54,0.82,0,1,.27,1.91s-1.5.14-1.63,0.54,0.41,1,1,1.77,3.4,2.31,4.36,3.13,3.41,1.5,4.08,1.77a11.55,11.55,0,0,0,2.32.68c0.82,0.14.82-.68,1.36,0s2.72,0.41,4.09.41a7.09,7.09,0,0,0,3.4-.68,7.6,7.6,0,0,1,2.32-1.23c0.68-.14.27-1.09,0.82-1.63a18.53,18.53,0,0,1,1.63-1.63,11.27,11.27,0,0,0,1.64-2.32c0.54-.82.41-1,1.36-1.23s1-1.36,1.5-1.91a10.14,10.14,0,0,1,2-1.09c0.41-.27.54-1.09,1.23-1.36a6,6,0,0,0,1.91-1.77,8.24,8.24,0,0,1,1.77-1.09c0.82-.54.41-1.91,0.41-1.91a8.71,8.71,0,0,1,1.23-.82c0.54-.27.68-2.18,1.22-3.13a23,23,0,0,0,1.09-3.27c0.27-.68,0-2,0.13-2.72a30,30,0,0,1,1.23-3.95,8,8,0,0,0,.14-3.54,3.27,3.27,0,0,1,1-1.63c0.27-.41-0.41-1.5-0.14-2.32s1-2.45,1.23-3.4,0.27-2,.68-3.4,0-4.77-.14-5.86A18,18,0,0,0,413,198c-0.54-1.5-1-3.13-1.5-4.36-0.3-.67-0.72-1.75-1-2.59a6.76,6.76,0,0,0,1.18-1.22,5.66,5.66,0,0,1,2.18-1.77,5.24,5.24,0,0,0,1.5-1.5c0.46-.47,1-0.83,2-1.86,0,2.18.08,4,.08,4.72,0,1.63-1.22,2.25-.82,3.47a7.87,7.87,0,0,1,.41,3.88c-0.2,1.63-.61,1.43-1,3.06a16.65,16.65,0,0,0-.41,5.92c0.2,2.86.82,12.67,0.82,13.48s0.41,2.66.61,4.9a6.67,6.67,0,0,0,1,3.27c0.41,1-.61,2,0,3.47s0,1.84-.82,2.25-0.61,1.84.41,2.66a5.36,5.36,0,0,0,2.66,1.23,15.6,15.6,0,0,0,5.31.41c1.43-.2,1.43-0.2,2.45-1.43s1.64,0.61,3.06-.2,0.21-2,1.23-2.86-0.2-3.47-.2-4.9-0.2-3.27.2-4.09-0.2-3.06-.2-4.29,1-5.52,1-7.56,1.43-8.78,2-11.24,1.63-8,1.84-9.19a47.47,47.47,0,0,1,2.45-6.54c1-2.45,1.63-6.95,2.25-8.17s1.63-6.54,2-8.58a21.6,21.6,0,0,0,.61-4.09c0-1,1-2,1.43-2.86a18.6,18.6,0,0,0,1.23-5.11,31.26,31.26,0,0,1,1.22-5.11c0.41-1.63,1.23-4.09,1.84-5.92a34.57,34.57,0,0,1,2.65-6.13c0.82-1.23,1.23-3.88,1.63-5.11a17.33,17.33,0,0,1,2.45-4.7c1-1.23.61,2.45,0.82,4.7s-0.41,5.11-.41,6.33a16.86,16.86,0,0,1-1.22,6.54c-1.23,3.27,0,2.25,1,2.25s0,0,.2,1.63-0.41,3.06-.41,4.49-0.61,6.95-1,7.76-0.82,1.23-.2,3.06-0.2,2.45-.41,5.72-1.23,5.72-1.23,7.76-1.23,2.25-.41,3.06,0.41,4.09.41,5.92-0.2,2.66.41,4.29,0.41,3.68.61,5.11-0.82,3.88-1.22,5.72-0.61,2.45.2,2.86,0.61,2,.61,3.27-0.21,3.06.2,4.09-0.61,2.86,0,4.09,0.2,3.27,1.43,4.49,2.25,0.2,3.68.82,2.25,0.41,3.06-.41,1.84,0.41,3.06-.61,0,0,1.23.41,1.84-.82,2.65-2a10,10,0,0,1,1.63-2c0.61-.61-0.41-3.06-0.61-4.49s-1-4.09-1-5.52-0.2-5.52-.2-6.95,0.61-2.86.61-4.29a53.78,53.78,0,0,1-.21-6.33,34.72,34.72,0,0,1,1.23-7.15c0.61-2,2-7.76,2.45-9s1.84-3.06,2.66-5.72,1.22-4.9,1.84-6.54,1.63-5.52,2.45-7.76,2-6.33,2.65-7.56a17.39,17.39,0,0,0,1.23-3.47c0.41-1.43,0-3.06.82-4.29s1.22-4.9,1.84-6.13,0.61-3.06,1.43-4.49,1.84-2.25,2-1a30.24,30.24,0,0,1,.2,4.49,29.05,29.05,0,0,1-1,6.13,42,42,0,0,0-.82,9c0,3.06-1.63,4.9-1.84,8.38a32.59,32.59,0,0,0,.61,8.38c0.41,2-1.63,2-1.84,3.88s-1,5.31-.82,7.56-0.82,4.09-.21,6.13-0.82,2-.82,4.29a14.48,14.48,0,0,0,1.84,5.92c0.61,1.23-.41,2.66-0.61,4.49s1.43,1.84,2,2.86,1.22,1.23,2.65,2.45,0.61,1.63-.2,2-1.23.41,0.41,1.84,1.84,1.84,4.29,2.25,3.47,1,5.92.41,4.08-.41,5.31-1,2.25-1,3.06-1.43,2.86-2.86,4.49-4.09,0-1.43.61-2.66,1,0,1.84-.2,1.23-1.63,2.45-2.45,2.45-3.68,2.86-4.29a17.82,17.82,0,0,1,2.66-3.06,29.88,29.88,0,0,1,2.66-2,4.51,4.51,0,0,0,1.28-2.19c0.66,0.75,1.58,1,1.58,1.38,0,0.61,2.25,2,4.09,3.27s0.82,1,2.66.82,5.11,1.23,8.38.2,4.9-2.45,6.74-2.86a5.2,5.2,0,0,0,3.68-2.86,30.88,30.88,0,0,1,4.29-4.7c1.43-1.43,2.66-1.84,3.88-3.68s3.68-5.92,3.68-5.92,3.27-3.68,3.68-5.11,2.86-3.06,2.86-3.06l1-1.23c1-1.23,2.66-2.45,4.49-4.7s3.47-4.7,5.31-6.33a23.76,23.76,0,0,0,3.27-3.47c1-1.23,1.43-3.47,2.25-4.49s0.41-3.06.82-3.88S590.43,136.32,589.41,135.3ZM387.25,182.62c-0.14-1.5,1-2.18,1.36-4.09s0.27-2.59.82-3.27a2.69,2.69,0,0,0,.41-2.31,14.15,14.15,0,0,1,.7-4.28,14.51,14.51,0,0,1,2.57.2,7.85,7.85,0,0,1,2.86,1c0.82,0.41,1.22,1.23,2.18,1.91s1.5,0,2.18.82,0.54,1.63,1.5,2.72,1,2.72,1.36,3.95,0.68,3.68,1,5a28,28,0,0,0,1.36,4.63c0.05,0.14.1,0.31,0.15,0.49-0.31.33-.63,0.66-1,1a7.23,7.23,0,0,1-1.63,1.5,42.75,42.75,0,0,1-3.68,2.45,4.46,4.46,0,0,1-3.27.68c-1.09,0-2.45-.82-3.81-1.36a8.48,8.48,0,0,1-3.27-2.72,8.57,8.57,0,0,1-1.63-3.54,8.93,8.93,0,0,0-.33-1.28A15.49,15.49,0,0,0,387.25,182.62Zm19.47,20.84c-0.14,1.09-.82,1.91-1,3.27s0.13,2.72,0,3.54-0.55,2.86-1,4.63a32,32,0,0,0-.68,3.68,26.88,26.88,0,0,1-1.09,4.49,27.16,27.16,0,0,1-2,5.86,58.07,58.07,0,0,1-3.81,6.81,9.75,9.75,0,0,1-3.4,2.18,32.85,32.85,0,0,0-3.54,2.45,4.63,4.63,0,0,1-2.72,1.09c-1.09,0-.41-1.23-1-2.32a13.09,13.09,0,0,0-1.63-2.32c-0.41-.54-0.14-1.36-0.68-2.18a3.26,3.26,0,0,1-.27-2.72c0.27-.68.27-1.09-0.54-1.36s-0.68-1.77-.54-2.86,0.54-1.23.41-2.72,0.27-2.59-.14-2.18-0.68-.14-0.54-1a8.48,8.48,0,0,0-.14-2.59c-0.14-1,.14-2.31,0-3.13a3.67,3.67,0,0,1,.41-2.32c0.41-1,0-1.91.27-4.09s0.41-5.17.54-6-0.54-1.36-.41-1.77,0.68-.41,1-1.36a23.08,23.08,0,0,0,.54-3.81,13.08,13.08,0,0,1,.22-1.3l0.73,0.76c1.23,1.23,3.81,2,4.36,2.32a29.84,29.84,0,0,0,3.13,1,11.14,11.14,0,0,0,3.68.14,14,14,0,0,0,3.68-1.5,32.59,32.59,0,0,0,2.86-1.77l2.74-1.9c0,0.94.07,1.78,0.12,2.31,0.14,1.63.27,1.23,0.41,2.86A17.57,17.57,0,0,1,406.72,203.46Z" transform="translate(0)"/><path d="M306.9,325.89a7.89,7.89,0,0,0,2.25,3.47c0.82,0.82,2.25.82,3.27,1s2.45,0.61,3.06.2,1.84-1.23,2-.2,2.45,1,5.11,1,1.63-1.43,2.65-1.84,2.45-.61,3.06-1.43,2.45-1.63,3.68-4.7,2-1.84,2.86-3.88a6.36,6.36,0,0,0-.2-5.52c-0.82-1.22-.41-1.22-0.82-1.63a9,9,0,0,1-3.06-3.27c-1.43-2.45-1.84-.82-2.45-1.23s-1-2.45-1.63-3.68-1,.82-1.22,2-1.43-.2-1.84-1.23,0.82-4.08,1-4.9,1.43-2,1.43-4.09-0.2-4.7-.82-5.72-2-1.23-3.27-2.45a11,11,0,0,0-4.49-2.45c-1-.2-2.66-0.41-3.27.41s-1.64-.61-2.45-0.82-2-.82-2,0.2,0.2,2.25-.82,2-1.63-.61-2.25,1.23-1.38.91-2.25,2.86-0.61,2.25,0,3.27-1.63,9.19-2,11.44,1.43,4.7,1.84,6.13-0.61,1.43.61,3.88,1,3.06,1.84,4.7S306.69,324.66,306.9,325.89Z" transform="translate(0)"/><path d="M556.52,310.16c-0.61-2.45-2.25-6.95-2.66-8.58s-1.23-.82-1.43-1.63,0.61-2.66-.82-4.09-1.43-3.47-3.06-6.13a40.89,40.89,0,0,1-3.68-7.56,15.3,15.3,0,0,0-2-4.09c-0.82-1.23-1.84-3.06-2.66-4.49s-1.84-1.43-2.25-3.27-1.43-3.88-1.63-5.52,0-2.86-1-4.09-1.22-2.66-2-3.68-0.61-2.66-1.43-3.88a18,18,0,0,0-4.09-3.68c-1.43-1-1.22-.82-2.25-0.82a17.28,17.28,0,0,1-4.49-.21c-1.43-.41-1.43.41-2.86,0.82s-1.42,1.47-1,3.06a35.69,35.69,0,0,1,.2,9.4c-0.41,2,2,5.11,2.66,6.74s-0.2,2.66,1.84,5.31,1.1,2.66,1.57,4.64A17.83,17.83,0,0,0,522,283a18.09,18.09,0,0,1-2,5.31c-0.61,1.22-1,4.7-2,6.74s-2.86,6.13-3.06,7.56-1.84,4.29-3.47,6.13-1.22,4.7-2.45,8-2.86,5.31-3.47,7.15c-0.2.59-.42,1.25-0.68,2-0.6-.54-1.12-0.9-1.77-1.39-0.82-.61-1.84.82-2,2.45a7.36,7.36,0,0,0,0,2.45l0.41,2c0,0.24.22,0.86,0.44,1.61-1.83,3.71-4.36,6.66-4.94,8s-2.86,4.29-3.68,5.92a43.33,43.33,0,0,1-3.49,5v-0.07c0.41-2.25.82-8.37,1.22-10.42s0.61-6.74,1-8.58,0-2.66.82-4.9a48.81,48.81,0,0,0,1.84-9.19,33.5,33.5,0,0,1,.41-4.29c0.41-2.45-.61-5.11-0.82-6.74s-1.43-2-2.86-3.06-3.27-2.45-4.09-3.06-2-.2-3.47,0-1.43-1-2.45-1.63a7.23,7.23,0,0,1-1.42-1.3,4.24,4.24,0,0,1,.61-1.15c0.82-1,.41-2.86.61-4.9s-1-6.13-1.23-8-1.63-3.27-2.66-4.7-2.66-1.84-4.7-3.06-5.92-1.84-7.15-2.86-2.25-.2-3.88-0.41a25.8,25.8,0,0,0-6.13.61,48.67,48.67,0,0,0-5.92,3.47c-1.23.82-2.45,3.06-3.88,5.72s-4.9,7.35-4.9,8.17-1.22,2.45-2.45,5.52-2.25,5.72-2.45,6.54-1.84,2.66-1.23,3.88-0.61,2.66-.61,4.09-1.43,3.88-1.84,5.11,0,1.84-.2,3.27a60.25,60.25,0,0,1-1,7.15c-0.61,2.25-.61,1.84-1,3.27s0.82,3.47,1.43,4.29-1.23,1.23-1,2.25,0,3.27.21,6.95-0.61,8,0,11.44c0.07,0.38.13,0.8,0.18,1.25-0.53,1.35-1,2.68-1.34,3.52-0.82,2.32-3.13,8.72-4.49,11.71s-4.49,9.53-5.72,11.58-1.5,2.59-3,3.41,0-.82-0.41-2-0.82-3-1.22-2-0.54-.27-0.82-1.36a24.33,24.33,0,0,1-.41-5.86,55.06,55.06,0,0,0-.14-5.72c-0.14-1.36.54-4.22,0.82-6s0.27-5.58.54-7.9,0.41-6.4.54-9,0.27-4.49.27-5.17,1.36-1.91,1.36-2.45a11.13,11.13,0,0,1-.27-2.45,14.51,14.51,0,0,1,.68-4.09,23.89,23.89,0,0,0,.68-7.35c-0.14-1.36,1.09-1.63.68-3.54a6.91,6.91,0,0,1,.13-4.22,1.86,1.86,0,0,0-.27-1.91c-0.27-.54.27-1.91-0.13-3.13s-0.41-3.68-1.09-5.31a23,23,0,0,0-2.11-3.61c-1.08-1.8-1.63-.41-2.86-1.43s-3.06-1-4.49-1.43-3.27,0-4.9,0-3.88,2.45-5.72,3.88-4.08,5.11-5.31,6.74-1.84,3.47-3.88,5.92-5.11,8.58-7.35,12.87-2,2-2.66.82a11.27,11.27,0,0,0-2.45-2.86c-0.82-.82-0.82-2.45-1.43-2.45a10.34,10.34,0,0,1-3.06-1.22,28.18,28.18,0,0,0-4.49-2,39.12,39.12,0,0,0-4.9,0c-1.43,0-3.88-.2-5.31.61s-3.09,1.33-4.29,3.47c-1,1.7,1,1.84,1.36,2.79s-0.54,3.54-.68,5.31a66,66,0,0,0,0,7.35c0.13,1.63-.27,3.13.13,4.77s0,3.13-.14,4.63-0.27,6-.41,7.76c-0.1,1.31-.2,3.74-0.3,5.52-0.35.73-1,2.09-1.88,4-1.36,3-3.54,8.17-4.09,11.17s-4.36,9.81-4.9,12.53-2.72,4.9-3.54,7.35S333,411.41,332,413.32s-2.18,6-3,6.54-1.36-3.68-1.64-7.08a94.5,94.5,0,0,1-.27-12.26,34.41,34.41,0,0,1,1.09-7.08c0.82-3-.27-3.81.27-6s-0.82-2.45-1.09-3.54,2.45-1.36,3.27-2.72-1.36-.54-1.63-1.63,1.36-2.45,1.91-4.36,0-4.09.27-5.45,1.91-1.09,1.91-3,1.09-6.54,1.09-8.17,0-3-1.63-.54-1.36-1.36-1.09-3,0.82-3,.27-5.45,0.27-4.63-.82-6-2.72-4.09-3.54-4.36-1.91,0-3-1.36-3-1.63-4.09-1.91-3,1.09-3.81-.27-2.45,0-3.81.27-3.27,1.63-3.27,3-2.45-.27-2.45.54a14.68,14.68,0,0,0,1.36,5.17c1.36,3,0,7.9,0,11.71s-1.09,13.07-1.36,15.25a37.81,37.81,0,0,0-.11,4.49c-0.54,1-1.11,2-1.52,2.87-0.82,1.63-1.43,4.29-2.65,6.95s-5.11,7.35-5.92,8.58l-0.33.52c-0.62-1.25-1.36-2.37-1.92-3.38a59.58,59.58,0,0,1-2.66-6.95c-0.61-1.63-2.25-2.66-2.66-5.11a32.59,32.59,0,0,0-2.45-7.15c-0.82-1.84-2.45-3.68-3.68-4.08s-3.27-1.23-4.09-2.25a3.71,3.71,0,0,0-.86-0.79,3,3,0,0,0-1-2.89,73.18,73.18,0,0,1-5.11-6.74,7.84,7.84,0,0,0-4.49-2.86c-2-.61-5.52-1.63-6.95-1.43s-1.41.82-1.84,2.25a68.56,68.56,0,0,1-5.31,11c-1.23,1.63-.61,2.45-0.61,3.68s-0.82,1.84-.41,4.08-2.86,9.81-3.68,13.28S246.43,398,247,400.25a13,13,0,0,1,0,6.33c-0.41,1,.2,2.86,0,4.29s0.61,3.47.61,4.29-1,4.29-1.09,8.24c-0.82-1.23-.82-2-1.36-2.59s-0.41-2.18-1-3.13-2.86-4.22-3.68-6a13.6,13.6,0,0,0-3.54-4.77c-1.09-.68-0.54-2.31-1.91-4.08s-1.91-.41-2.72-1.77-4.77-5-6.95-6.54-9-5.86-11.71-7.35-4.63-3.27-9.12-4.77c-7.34-2.45-10.35-2.86-14.3-3.27s-10.62,1.09-13.07,1.36-9.53,1.91-15.8,2.86a63.68,63.68,0,0,0-13.75,3.95c-1.63.68-4.36,1.77-5.58,2.32a8.58,8.58,0,0,1-2.72.54,6.29,6.29,0,0,0-2,1.23,5.08,5.08,0,0,1-3.27.68,8.69,8.69,0,0,0-3-.82c-1.36,0-.54.82-1.36,0.82s-1.91-1.09-1.5.54a6.28,6.28,0,0,1,.68,1.91c0.14,1,1.09,1.77,2.31,3.13a9.6,9.6,0,0,0,2.59,2.32c1.09,0.68,2,2,2.86,2.18a2.28,2.28,0,0,1,1.5,1.23c0.41,0.54,1.63,0,2.31-.82s1,0,2.72.27a10,10,0,0,0,5-.54c1.23-.55,1.63.82,2.18,0.82s1.63,0.14,2.45.14,2.18,0.54,2.45,0,1.77-.41,2.72-0.82,0.82,0.82,1.5,1.23a1.1,1.1,0,0,0,1.16-.21c0,2.66-1.86,4.28-.89,5.25s1.36,4.09,1.09,5.45a32.77,32.77,0,0,0,0,5.17c0,1.63.27,14.44,0,19.07s-0.54,12.8-.54,14.16,0.82,1.36,1.36,2.18-0.27,2.45-.27,3.54,2.18-1.36,2.18.27a29.22,29.22,0,0,1-1.63,7.9c-0.82,1.91-1.91,3-1.36,3.81s0.82,1.09,1.36,4.09,0.27,4.63-.27,5.72,0.82,0.54,1.09,2.45,1.36,6.81.82,8.44-1.36.54-1.36-1.91-1.09-4.09-1.09,0,0.82,3.81,1.36,4.9a12.83,12.83,0,0,1,1.09,4.63c0,1.36.14,2.18,0.68,0.68s0.68-.27.68,1.36,0.82,2,.27,2.59,0,0.41.14,1.91a32,32,0,0,1-.14,3.68c0,1.36,1.36,1.91.54,2.72a4.09,4.09,0,0,0-1.09,2.45c0,0.41.14,1,.82,0.68s0.82,0.41.41,1.36-0.82,2.45.14,1.91,1.36,0.41.82,1.09-1.63.27-.82,2.72,0.68,2.18,1.63,3.27,1.91,1.77,1.77,2.86a2.46,2.46,0,0,0,.94,2.22c-0.2.23-.12,0.34,0.42,0.23,0.75,0.25,1.83,0,1.6-.52,0.3-.16.58-0.34,1-0.57,1-.54,1.09-0.41,1.36.14s1.23,0,1.23-.68,0.54-1,1.23-1.5,2.18-.41,3.41-0.82,0.68-.54,1.09-1.09,2-.54,3.4-1.23a47,47,0,0,0,4.63-2.59c1-.68,1-1.09,2-1.91s3.81-1.5,4.08-2a5.19,5.19,0,0,1,2.18-1.5c0.68-.27.54,1.23,0.54,1.23a20.13,20.13,0,0,0,2.86-1.77,40.21,40.21,0,0,0,5.86-4.9C209.8,508,211,508,212,507.15a10,10,0,0,0,2-2.18c0.55-.82,1-0.82,1.23-0.27s1.36-1.77,2.86-2.72,1.23-1.77,2.31-2.86,2.86-2,3.54-3.4,3.13-3.95,3.68-4.77,2.45-3.68,3.4-4.77,2-3.27,2.72-3.81a9.59,9.59,0,0,0,1.77-2.59c0.54-1,1.63-2.18,2.72-3.81s2.59-3.95,3.4-5.45,2.18-2.18,2.72-4.36A51,51,0,0,1,246,460c0.41-.68.54-2,1-2.86a20.42,20.42,0,0,0,.82-3.95c0.14-.82.82-2,1-3a37.34,37.34,0,0,0,.68-3.81c0-.8,0-2.07.08-3.58a4.23,4.23,0,0,0,.4.92c1.23,1.84,0,3.47,1.84,4.49s3.47,3.68,4.49,5.11a13.38,13.38,0,0,0,3.47,3.27c1.63,1.23,2.66,3.68,6.13,6.54a19.94,19.94,0,0,0,6.13,3.68,6.75,6.75,0,0,0,3.88.61c1-.2,2.25,1,4.29-0.2s2.86-.82,4.9-1.84a25,25,0,0,0,6.74-5.52c1.43-1.84,3.06-2.45,4.29-3.88s2.25-4.7,3.68-8.17a23.34,23.34,0,0,0,2-7.56c0.2-2.25,1.63-4.09,1.23-6.95s-0.21-3.47-.41-5.31a4.17,4.17,0,0,0-1.22-2.86c-0.61-.82-0.21-3.47-0.41-4.49s0.41-3.06,0-4.49a32.06,32.06,0,0,1-.82-6.74,21.32,21.32,0,0,0-.9-4.32,37.92,37.92,0,0,0,3.15-3.65A14.33,14.33,0,0,0,304,399s1.43-2,2-3.06a27.65,27.65,0,0,1,1.24-2.51c0.24,3.93.53,7.83,0.67,10.07,0.08,1.36,0,6.81.27,9.26s0.82,6.54,1.63,8.17,0.27,1.09,0,3,1.36,1.91,2.45,3.27a1.38,1.38,0,0,1-.27,2.18s0.82,1.36,1.36,2.45a14.56,14.56,0,0,0,3.54,3.54c0.82,0.54,1.91,1.09,2.18,2.18s1.91,1.36,3.54,1.09,3.54,0.27,5.17,0a19.6,19.6,0,0,0,6.54-2.72c1.36-1.09,1.63-2.18,2.45-3a11.45,11.45,0,0,0,2.45-5.17,30.9,30.9,0,0,1,1.63-6.81c0.82-1.91,1.91-4.77,3.27-12A101.76,101.76,0,0,1,348,394.53c0.82-2.45.27-4.63,1.09-7.08a69.61,69.61,0,0,1,2.45-7.08,8.17,8.17,0,0,1,.58-1c0,0.68.08,1.14,0.1,1.23,0.13,0.54.13,4.49,0.54,6.81s-0.14,8.44.14,9.67,0.14,5.58.27,6.94,0,4.09.14,6-0.82,2.72-.27,2.86,0.54,1.77.54,3.27-0.68.82-.68,0.82a6,6,0,0,1,.27,2.45,2.19,2.19,0,0,1-1.5,1.77,5.57,5.57,0,0,0,1.09,1.36c0.54,0.41,0,.82-1.09,1.77s1.23,1.09,1.64,1.63,0.54,0.55,1.91.41,1.77,0.27,3,.54,1.09-.54,2-0.27a3.29,3.29,0,0,0,2.32-.14c0.68-.27.82-1.09,1.63-1s1.5,1.09,1.5.68,0.54-1.09.82-2,0.13-1.5.82-2a4.1,4.1,0,0,0,1.09-2.59c0.13-1-.82-1.09-0.82-2.45a17.8,17.8,0,0,1,.41-4.77,33.57,33.57,0,0,0,1.09-4.36,29.85,29.85,0,0,1,1.5-5.17c0.82-2,.54-4,1.36-5.72s0.54-3.95,1.23-5,0.82-3,1.09-4.9a34.76,34.76,0,0,1,.68-5c0.41-1.09-.55-2.31-0.27-3.68s0.41-4.08.68-5.58a9.35,9.35,0,0,1,1.5-3.41c0.82-1.5.68-2.72,1-3.95s-0.27-2.59.54-3.68a10.38,10.38,0,0,0,1.91-4.09c0.41-1.77.41-2.32,1-3a10.51,10.51,0,0,0,1.23-3c0.41-1.23.68-1.63,1-2.59a4.18,4.18,0,0,0-.13-2.31,4.36,4.36,0,0,1,.68-2.32,17.46,17.46,0,0,1,2.45-4.22c1.09-1.09.54-2.18,1.5-2.59s0.55-1.91,1.09-3,1-.27,1.63-1.5,1.5-2.18,2-3.13a10.27,10.27,0,0,0,1.36-2.31,11.81,11.81,0,0,1,1.36-2.59,1.68,1.68,0,0,0,.27-1.91c-0.27-1,1-.68,1.36-1.09s1.77-2.18,1.77-2.18a35.41,35.41,0,0,0-.68,4.09,22.41,22.41,0,0,1-.54,4.22,3,3,0,0,0,.14,2.18c0.27,0.82-.27,2-0.41,3.54s-1,3.68-1,4.77-0.82,2.86-.27,2.59,0.27,1.5.54,2.45-0.41,2.18-.82,2.86a7.22,7.22,0,0,0-.68,2.72c-0.14,1.09-.14,1.63-0.68,4.49s0.82-.14,1.23-1.5,1-1.09,1,.27a16.44,16.44,0,0,1-.82,4.63c-0.41,1.09-1.5.14-1.63,0.82a27.32,27.32,0,0,0,.14,3,48.72,48.72,0,0,1-.41,5.72c-0.27,2,0,4.22-.41,5.31s0.13,1.77.27,2.72,0,3.81,0,6-0.55,3.68-.55,5.31,0.41,1.63.82,1.91,0,1.23.82,2.31,0.68,1.5.68,2.72,1.23,0.82,1.36,1.36a19,19,0,0,0,.27,2.18c0.27,1,.54,2.86,1.09,3a5.55,5.55,0,0,1,1.64.41c1,0.41.68,1.09,1.22,1.91s1.5,1,2.73,1.09,0.82-.14,1.36.41,2.31,0,3.95.41,3.13-.54,4.08-0.82a8.33,8.33,0,0,0,3.27-1.91c1.23-1.09,1.91-.82,2.45-1.5s2-1.91,2.59-2.72a10.18,10.18,0,0,1,2.72-2.72c1.36-1,.41-1.36.54-1.91s1.63-1.63,1.77-2.72,1.5-2.86,2-4.36,0.27-3.54.41-5.31,1.09-4.9,1.36-6.54c0.21-1.25,1.06-4.58,1.57-6.32,0.59,1.35,1.19,4.8,2,6.18s1.84,4.7,2.66,5.72,1.22,4.7,1.63,3.68,1.23,0.82,2,1.84a3.9,3.9,0,0,0,2.86,1.43c1.23,0.2,1.43,1.23,2,2s1.43,0,2.25.41a14.32,14.32,0,0,0,4.7,1.23,11.92,11.92,0,0,0,3.68-.41c1.64-.41,3.47-0.2,4.09-0.61s0.82-1.22,1.84-1.22a5.19,5.19,0,0,0,3.27-.82c1.22-.82,1.22-1.43,1.63-2.86s1-1.23,2.25-2.45a4.79,4.79,0,0,0,1.22-3.06,5.8,5.8,0,0,1,.21,2.66c-0.21,1.63.61,3.88,0.2,6.13s0.41,1.63.2,3.68-0.2,8.17-.2,9.6a14.9,14.9,0,0,1-1,5.31c-0.82,2.25-.21,3.06-1,4.9s-0.2,1.84,0,3.68-0.41,1.22-1.43,3.47-1.84,6.13-2.45,8-1.84,2-2.45,3.68-2.45,1.43-4.29,1.63-2.86-.82-4.49-1.43-2,.61-3.68,1.23-2.45-1-4.08-.41c-1.39.52-1.63,2.66-.41,2.86s2,1,3.68,1.43,2,1.43,3.47,2,1.84,2,3.27,3.68,2.45,1.22,4.09,1.84a8.61,8.61,0,0,0,4.49.61,10.84,10.84,0,0,1,3.67-.2c1.84,0.2,3.68,0,4.29-1.23s1.84-1.43,2.86-2.25,2.45-2,2.66-2.86,1.64-2.86,2.66-4.9,3.68-9.6,4.08-10.83,0.61-4.29,1-6.54,2.45-9.6,2.45-10.83a25.92,25.92,0,0,1,.61-6.54c0.61-1.84-.2-4.49-0.2-5.72a18,18,0,0,1,.61-4.9c0.61-2.66.41-5.52,0.41-9s0.2-7.56.2-10.21a33.53,33.53,0,0,0-.4-4.6c0.69-1,1.33-2,1.83-3,1.23-2.25,2.45-1.84,3.47-2.86a14.83,14.83,0,0,0,3.27-3.68c1-1.84,2.86-5.31,3.88-7.15a26.06,26.06,0,0,1,2.67-3.78c0.14,0.78.28,1.47,0.39,1.94,0.41,1.63,2,3.47,3.07,4.9a38.27,38.27,0,0,0,3.47,4.7,60,60,0,0,0,6.95,6.13,4.38,4.38,0,0,1,1.84,2.45l1.84,0.41c1.84,0.41,2.25,1.63,3.68,2.66a6.75,6.75,0,0,0,3.47,1.63,7.53,7.53,0,0,1,3.47,1c1.43,0.82,3.47,0,4.9,0s4.29,0.82,6.95,0a22.26,22.26,0,0,0,6.95-4.08,12.55,12.55,0,0,0,2.86-2.86c0.82-1.23,2.45-2,2.86-3.47s1-2.45,1.43-4.09,1.63-7.76,2-10.21a96.86,96.86,0,0,0,.82-10.83c0-2.45-1.23-6.13-1.43-9.19S557.13,312.61,556.52,310.16Zm-381.59,193c0.14,1,1,1.77.14,2.18s-1.5,1-1.36.14,0.41-.27.27-1.36a3,3,0,0,1,0-1.91c0.27-1.5-.27-1.63-0.41-2.59s-0.68-1-.14-2.59,1.09-1.5,1-2.18-0.41-2.86.27-2,0.55,1.22.55,2.31,0.41,1.91.14,2.45-1.09.54-.82,1.5-0.14,1.77.27,1a12.78,12.78,0,0,1,.68-1.36,2,2,0,0,1,.69-0.59,1.59,1.59,0,0,0,0,.19v3.54c0,1.09-.68,1.22-0.68.68S174.8,502.25,174.94,503.2Zm59.24-51.61c-0.14,1.77.14,6-.41,6.4s-0.27,3.13-.55,3.95a22.07,22.07,0,0,1-2.18,5.31c-1.5,2.59-6.54,13.35-7.9,15.12s-2.18,2.59-3.4,4.22-4.49,5.58-5.86,7.08-0.68,2.18-1.63,3.41-2.18,1.77-3.68,3-4.63,4.49-6.54,5.86-4.9,5.45-5.72,6a7.76,7.76,0,0,0-2.18,1.5c-0.68.82-2.31,1.23-2.59,1.91s-0.54,1.36-2.45,2.18a17.2,17.2,0,0,0-4.36,2.86c-1,.82-2,1.77-3,2.45s-5,3-5.45,3.27a26.75,26.75,0,0,1-3.54,2.45l-0.55.3a5.14,5.14,0,0,1,.82-1.67c0.27-.41,1.09,1,1.5,0a13.84,13.84,0,0,0,1-3.54c0-.68,1.5.27,1.91-1s1.63-1.23,1.63-3.54-0.14-9.67-.54-7.22-0.27,5.45-.82,6.13-1.5.27-1.36-2,0.54-6,.82-7.63,0.54-1.63.54-3.13a19.41,19.41,0,0,1,0-2.86c0.14-2.18.41-2.45-.27-3.4a4.85,4.85,0,0,0-.93-1.1,1.08,1.08,0,0,0,.25-0.95,3.35,3.35,0,0,1,.14-2.32c0.41-1.09-.14-1.09-0.14-2s1-1.91,1.09-3-0.41-1.91-.27-3-0.41-2.32.14-3.54,0.82-1.23.82-2.72,0.14-1.77.27-3.54a36.75,36.75,0,0,1,.41-4.36c0.27-1.36-.14-1.91.27-3s0.82-2,.54-2.86-1.23-2.72-.14-4.09,0.14-1.09.14-2.59,0.68-2.59.27-3.4-1-1-.82-2.18,1-1.5,1.09-2.32a15.17,15.17,0,0,0,.14-3.54,6.29,6.29,0,0,1,.14-3.13c0.41-1.77.27-3.13,0.54-4.36a6.85,6.85,0,0,0,.27-2.86,15.72,15.72,0,0,1,.14-2.45c0-1.36-.41-1.5-0.14-2.86s1.36-2.18,1.23-3.81,0-3.27,0-4.63-0.82-1.23-.54-2.72,0.82-3.13,1.23-5.45a37.25,37.25,0,0,0,1-7.49,49.15,49.15,0,0,0-.54-5.86c0-.82.68-1.63,0-3a10,10,0,0,1-.65-2.05l0.65-.13a39.11,39.11,0,0,1,5.72-.14c1.63,0,0,.68,1.36.14s1.36-.55,1.91-0.14,1.63,0,2.59-.68,2,0,2.86-.27,0.82,0,2.31,1,5,2.59,5.58,3.27a3,3,0,0,0,2.59,1c0.54-.27,1.5,1.36,3,2.72s6.26,4.77,7.9,6.26,4.09,5.45,5.58,7.08,3.81,6.26,3.81,7.49,0.41,1.91,1.23,3.41a49.84,49.84,0,0,1,3,11.3C233.63,443,234.31,449.82,234.18,451.59Zm44.74-72c0.61,1.22.82,3.27,2.25,3.88s1.43,1.43,2.45,4.08,1,5.11,2.25,8.78c0.61,1.83,1.78,4.58,2.88,7.13-1.24.6-2.51,1.16-3.28,1.45a11.89,11.89,0,0,1-4.49.41c-1.23,0-4.7-1.43-6.13-2.25a10,10,0,0,1-3-2.69c0.06-.64.11-1.13,0.15-1.39,0.2-1.43,1-3.47,1.43-5.11s0.82-3.88,1.43-6.74a60.35,60.35,0,0,1,2.66-9.19,4.15,4.15,0,0,0,.19-0.58A22.75,22.75,0,0,1,278.91,379.61Zm12.46,50c-0.82,1.23.82,3.47,0,6.95s-2.25,9.6-3.06,10.83-1.84,4.7-3.68,6.13-3.27,3.06-5.11,3.27-2-.61-3.06-3.68-1.84-2.86-3.68-4.29-2.25-3.27-2.45-5.31,0.82-3.47.82-5.72-0.82-3.47-.2-4.49,0.61-5.11.61-6.74a11.14,11.14,0,0,0-1-4.49c-0.61-1.43.61-2,.61-4.08s-0.41-5.11-.2-7.15c0-.26.06-0.62,0.1-1.05a33,33,0,0,0,6.85,2.69,16.65,16.65,0,0,0,5.52,0,22.94,22.94,0,0,0,4.49-1c0.82-.31,2-0.66,3.48-1.25a80.87,80.87,0,0,1,1.42,8.4C293.21,421.9,292.19,428.43,291.37,429.66ZM475,310.16c-0.2,1.43-.41,5.31-0.41,5.92s-0.82,3.27-1,4.9-0.82,3.68-.61,4.9-0.61,8.17-.82,10.62-1.43,8.78-1.22,10.21-2,4.9-3.07,7.15-5.31,10.83-6.94,13.89-2.25,2.66-3.88,3.68-2.25,2.25-3.88,4.09-1.63-.2-2.25-1.84a13.66,13.66,0,0,1-1.23-4.29c-0.41-2.66-1.22-5.92-1.22-7.76s0.41-5.31.41-8.37-0.2-4.49.2-5.92a4.65,4.65,0,0,0-.82-3.88c-0.61-.61.41-2.25,0.82-3.27s-0.2-2.86,0-5.92,0.41-9.8.82-11.24,1.64-5.72,2-7.56a27,27,0,0,1,1.84-5.72c0.61-1,1.63-3.47,2.45-5.11s2.65-8.17,3.47-9.4,3.67-7.35,4.7-8.58,1.22,1.23,2.25,2-0.61,3.06-.2,3.88,0.2,2.86.41,4.09-0.82,4.49-.82,5.72a25.05,25.05,0,0,1-2,7.56c-1.84,3.88,2,3.27,4.09,3.27s1.43-.82,2.65-2.86,1.43-2,3.27-3.47a6.63,6.63,0,0,0,1.3-1.42,5.1,5.1,0,0,0-.08,1.42A9.73,9.73,0,0,1,475,310.16Zm66.39,28.6a8.44,8.44,0,0,1-.82,4.9c-1.22,2.86-.2,2-0.2,2.86s-0.82,2-1.63,3.68-2.25,1-4.09,2.66-2.25.61-3.27,0.82a10.08,10.08,0,0,1-4.29,0c-1.43-.41-2.66-1.43-3.27-1.23s-1.84.2-1.63-.61-1.43-1.63-2.45-3.27-4.49-4.08-4.49-4.7-1.23-2.45-2-3.47-1.63-3.68-2.25-5.11a36.76,36.76,0,0,1-1.14-3.52c1.24-2.24,3.12-5,3.59-6.08,0.61-1.43,3.47-6.54,4.9-9.19a48.51,48.51,0,0,0,2.65-5.72c0.2-.61,1.63-2.66,2.45-4.29a11.29,11.29,0,0,0,1.43-3.47c0.21-1.23,1.23-2.86,2.25-4.7a39.87,39.87,0,0,0,2.45-5.31c0.09-.24.18-0.52,0.27-0.83,0.25,0.28.55,0.58,1,1a4.48,4.48,0,0,1,1.43,3.68,10.7,10.7,0,0,1,1.23,2.45c0.61,1.63,1,1.43,2.45,3.06s-0.41.82-.82,1.43,1.43,2.25,2,3.68,0.82,1.84.61,3.06,0.61,2.25,1,3.27a27.8,27.8,0,0,1,1.43,5.11,50.36,50.36,0,0,1,0,5.72c-0.2,2.66.82,2.86,1,4.08a19.71,19.71,0,0,1,0,4.9,3.32,3.32,0,0,0,1,2.86C542.83,337.12,541.4,337.74,541.4,338.76)"/></svg>
